<svg width="27" height="30" viewBox="0 0 27 30" fill="none" xmlns="http://www.w3.org/2000/svg">
<path fill-rule="evenodd" clip-rule="evenodd" d="M10.9215 0.103455C11.1047 0.264329 11.2481 0.445535 11.1441 0.704579C11.0562 0.923501 10.8717 0.979064 10.6449 0.977899C9.54972 0.972234 8.45452 0.974718 7.35932 0.975571C6.64444 0.976115 6.31732 1.29608 6.31693 2.00251C6.31544 4.58247 6.31982 7.16251 6.3109 9.74239C6.30997 10.0009 6.36426 10.0495 6.63576 10.0332C8.60662 9.91506 10.5615 9.99142 12.4514 10.6426C12.5908 10.6906 12.679 10.6716 12.7897 10.5829C12.9833 10.428 13.2116 10.3439 13.4644 10.3339C13.9042 10.3164 14.3446 10.301 14.7832 10.3406C15.4384 10.3999 15.9277 10.9415 15.9311 11.594C15.9345 12.235 15.4666 12.761 14.8235 12.8595C14.641 12.8873 14.399 12.7982 14.2895 12.9267C14.1544 13.085 14.2476 13.3355 14.2398 13.5457C14.2304 13.7975 14.2473 14.0504 14.2346 14.302C14.2247 14.4963 14.28 14.5861 14.4939 14.5747C14.6578 14.566 14.8293 14.5789 14.9881 14.6187C15.571 14.7649 15.9694 15.3326 15.9255 15.9312C15.8806 16.5467 15.4331 17.0266 14.82 17.1022C14.382 17.1561 13.9415 17.1315 13.502 17.1182C13.1549 17.1077 12.869 16.9535 12.5871 16.7055C12.5871 17.2797 12.5871 17.816 12.5871 18.4058C13.1861 17.7941 13.9383 17.9938 14.6416 17.9858C15.3851 17.9773 15.9481 18.5728 15.9304 19.2852C15.9126 19.9952 15.3544 20.539 14.6179 20.522C14.3194 20.5151 14.1806 20.5861 14.2364 20.8972C14.2448 20.9441 14.2441 20.995 14.2365 21.0423C14.1911 21.3246 14.2847 21.4228 14.5945 21.4132C15.3541 21.3896 15.918 21.9337 15.9308 22.6526C15.9435 23.3656 15.3844 23.9559 14.6354 23.9454C14.094 23.9377 13.6038 23.9877 13.1667 24.3492C12.9858 24.499 12.6565 24.5111 12.5364 24.6832C12.429 24.8372 12.5842 25.1177 12.5712 25.3501C12.5551 25.6402 12.5741 25.9321 12.5648 26.2227C12.5599 26.3741 12.6127 26.4385 12.7657 26.4232C12.8237 26.4174 12.8829 26.4226 12.9416 26.4226C16.9801 26.4226 21.0187 26.4228 25.0572 26.4225C25.8138 26.4224 26.1185 26.1178 26.1186 25.3634C26.1188 23.7921 26.1202 22.2209 26.1167 20.6496C26.1162 20.4641 26.1473 20.3023 26.3105 20.191C26.4522 20.0942 26.6082 20.0886 26.7555 20.1607C26.9279 20.2451 27.0008 20.3935 27 20.5889C26.9962 21.5588 26.9984 22.5287 26.9986 23.4986C26.9986 24.1678 27.001 24.8371 26.9978 25.5063C26.993 26.5424 26.3084 27.2565 25.2613 27.3204C25.1442 27.3276 25.0266 27.3248 24.9093 27.3248C20.9098 27.3249 16.9104 27.3266 12.911 27.3207C12.6669 27.3203 12.5377 27.3496 12.5573 27.6419C12.5817 28.0063 12.3698 28.2843 12.1133 28.5224C11.69 28.9153 11.1695 29.136 10.6304 29.3167C9.54956 29.679 8.43058 29.8335 7.29673 29.8949C6.94543 29.914 6.74654 29.7637 6.72323 29.4957C6.6996 29.2239 6.89481 29.0502 7.2598 29.0211C8.4395 28.9269 9.61176 28.7954 10.7187 28.3391C10.8267 28.2946 10.9323 28.2447 11.0389 28.1967C11.4996 27.9891 11.7792 27.6817 11.6916 27.1329C11.6571 26.9166 11.686 26.6903 11.686 26.5119C8.08757 27.8395 4.50967 27.8404 0.896872 26.5143C0.896872 26.8476 0.871444 27.2397 0.906652 27.6263C0.926994 27.8495 1.15053 27.9679 1.33321 28.08C1.88872 28.4209 2.50752 28.5974 3.13781 28.7343C3.71976 28.8608 4.30852 28.9478 4.90462 28.9801C5.00195 28.9853 5.09944 28.9989 5.19536 29.0163C5.47656 29.0674 5.61833 29.2403 5.59345 29.4957C5.57099 29.7269 5.38705 29.9085 5.1323 29.8886C3.71655 29.7774 2.31567 29.5942 1.02972 28.9329C0.785381 28.8072 0.564431 28.6475 0.375169 28.4475C0.131452 28.1899 -0.000615949 27.8938 0.00423491 27.5306C0.0142496 26.7743 0.0195696 26.0174 0.00259159 25.2612C-0.00765782 24.8045 0.17957 24.4576 0.509742 24.1676C0.820901 23.8943 1.18339 23.7042 1.56926 23.5611C1.71393 23.5075 1.77738 23.4486 1.70806 23.2944C1.65126 23.168 1.65603 23.0298 1.65627 22.8935C1.65713 22.1661 1.67207 21.4381 1.6475 20.7115C1.63991 20.4863 1.8327 20.2378 1.68052 20.0672C1.54438 19.9145 1.28572 19.872 1.08496 19.7732C0.820589 19.6429 0.581644 19.4747 0.378299 19.2613C0.134191 19.005 -0.00116358 18.7098 0.00415672 18.3457C0.0147191 17.6088 0.0252814 16.8709 0.00094886 16.1346C-0.0160292 15.6192 0.195531 15.2397 0.57961 14.9273C0.846485 14.7103 1.14387 14.5425 1.4645 14.4221C1.61996 14.3637 1.66292 14.2788 1.66018 14.1211C1.65079 13.5781 1.67176 13.0344 1.65228 12.4919C1.63295 11.9557 1.86548 11.5587 2.27671 11.2462C2.90333 10.77 3.64074 10.5466 4.39035 10.3573C4.6167 10.3001 4.84759 10.2506 5.07941 10.2276C5.33533 10.2022 5.42562 10.1119 5.42359 9.83358C5.40841 7.75804 5.41537 5.68244 5.41537 3.60683C5.41537 3.06367 5.41428 2.52052 5.41561 1.97737C5.41803 1.04293 5.85039 0.45283 6.74717 0.154285C6.77228 0.145904 6.79184 0.120837 6.81399 0.103609C8.18342 0.103453 9.55245 0.103455 10.9215 0.103455ZM7.93845 13.7716C9.05063 13.7472 10.1314 13.6809 11.1917 13.4326C11.8669 13.2745 12.5396 13.0991 13.0979 12.6613C13.4197 12.409 13.4128 12.212 13.0948 11.961C12.7931 11.723 12.4458 11.5644 12.0818 11.4528C9.56669 10.6818 7.02774 10.6911 4.47759 11.2533C3.89572 11.3816 3.32708 11.5663 2.84183 11.9283C2.46401 12.2101 2.4709 12.4256 2.84692 12.7029C3.11552 12.901 3.41909 13.0323 3.73158 13.1453C5.09999 13.6406 6.52802 13.7386 7.93845 13.7716ZM13.3349 13.5921C12.9887 13.7645 12.6933 13.9107 12.3787 14.0147C10.6387 14.5894 8.8436 14.7179 7.03008 14.6237C5.53469 14.546 4.05564 14.3533 2.69709 13.6559C2.56393 13.5876 2.54757 13.6485 2.54797 13.7573C2.5489 14.0287 2.55837 14.3006 2.54476 14.5712C2.53216 14.822 2.63974 14.9947 2.83675 15.1352C3.21457 15.4045 3.63722 15.5797 4.08005 15.7014C6.47145 16.3589 8.87905 16.353 11.2939 15.8452C11.8674 15.7245 12.4264 15.547 12.9249 15.2286C13.1103 15.1101 13.3237 14.9892 13.3319 14.7319C13.3436 14.3659 13.3349 13.9995 13.3349 13.5921ZM8.11089 24.4426C8.99828 24.457 10.0568 24.365 11.1004 24.1383C11.7589 23.9953 12.4091 23.8181 12.9779 23.4379C13.1545 23.3199 13.3371 23.1938 13.3361 22.9423C13.3349 22.6417 13.3303 22.3411 13.3386 22.0408C13.3438 21.8514 13.2756 21.8555 13.1363 21.9329C12.829 22.1034 12.5009 22.2273 12.1654 22.3322C10.9829 22.7019 9.76433 22.8576 8.53182 22.8822C6.53936 22.9221 4.56725 22.8031 2.72925 21.9177C2.57042 21.8412 2.54507 21.8943 2.54695 22.0364C2.55047 22.2981 2.55798 22.5604 2.54476 22.8215C2.53263 23.0602 2.63317 23.2286 2.81727 23.3663C3.10918 23.5845 3.43732 23.7311 3.77907 23.8493C5.1237 24.3139 6.51761 24.4441 8.11089 24.4426ZM11.6857 17.3291C8.06707 18.6473 4.48956 18.6677 0.887327 17.3202C0.887327 17.5963 0.901567 17.905 0.883024 18.2117C0.866906 18.4772 0.982779 18.6533 1.18753 18.7977C1.57505 19.0708 2.00874 19.2465 2.46182 19.3689C4.82701 20.0076 7.20792 20.0027 9.59517 19.5075C10.2079 19.3803 10.8044 19.1932 11.33 18.8384C11.5082 18.718 11.6837 18.5854 11.6851 18.3388C11.6871 17.9904 11.6857 17.6418 11.6857 17.3291ZM6.4569 26.5958C7.13594 26.6152 8.01207 26.5476 8.87944 26.4015C9.65871 26.2702 10.4291 26.0933 11.1311 25.709C11.3195 25.6059 11.5017 25.4912 11.6217 25.3051C11.6764 25.2201 11.7056 25.1363 11.6448 25.035C11.5749 24.9185 11.4863 24.9616 11.3898 24.9796C11.0068 25.0507 10.6244 25.1289 10.2386 25.1814C8.70128 25.3905 7.16168 25.3903 5.62529 25.1792C4.55959 25.0327 3.51172 24.8141 2.56643 24.2647C2.50024 24.2262 2.44023 24.1837 2.35002 24.2149C1.91626 24.3649 1.48281 24.5167 1.12283 24.8119C0.820823 25.0596 0.823639 25.2472 1.12392 25.4915C1.41474 25.7281 1.75461 25.8774 2.10521 25.9986C3.44897 26.463 4.84227 26.5968 6.4569 26.5958ZM8.12834 22.0032C9.08192 22.0138 10.2375 21.9153 11.3721 21.636C11.9698 21.4888 12.5625 21.3161 13.0622 20.9382C13.4274 20.662 13.423 20.4617 13.0598 20.18C12.7083 19.9077 12.2935 19.762 11.877 19.6213C11.7982 19.5947 11.7462 19.6283 11.6873 19.6617C10.3967 20.393 8.96738 20.5868 7.52221 20.6973C5.93567 20.8187 4.35992 20.724 2.80404 20.3766C2.57284 20.325 2.5507 20.4635 2.57597 20.6239C2.59655 20.7545 2.70437 20.8369 2.80475 20.9157C3.09197 21.141 3.42222 21.2858 3.7635 21.4049C5.10758 21.8737 6.50236 22.0024 8.12834 22.0032ZM9.53102 17.0264C9.3369 17.0363 9.14256 17.0444 8.94844 17.0563C7.29939 17.157 5.66785 17.0437 4.06824 16.6217C3.31088 16.4219 2.57191 16.1609 2.01202 15.574C1.69421 15.2407 1.70055 15.2337 1.3009 15.4975C1.22783 15.5457 1.15561 15.5968 1.09067 15.655C0.834437 15.885 0.830994 16.0529 1.09075 16.2789C1.3818 16.5322 1.73294 16.6815 2.09269 16.8089C3.43544 17.2841 4.83178 17.4078 6.24354 17.4133C7.35588 17.4175 8.46093 17.3372 9.53102 17.0264ZM14.1006 18.8718C13.8777 18.8823 13.6507 18.8344 13.4317 18.8971C13.2229 18.9569 13.14 19.136 13.257 19.2474C13.6575 19.6283 14.1397 19.735 14.6718 19.6519C14.898 19.6165 15.0453 19.4853 15.033 19.2381C15.0214 19.0054 14.8742 18.8912 14.6552 18.8746C14.4713 18.8607 14.2856 18.8718 14.1006 18.8718ZM14.1186 16.2248C14.1186 16.2265 14.1186 16.2283 14.1187 16.2299C14.3037 16.2299 14.4895 16.2399 14.6738 16.2274C14.902 16.2119 15.0303 16.0776 15.0326 15.8505C15.0351 15.6233 14.9087 15.4795 14.682 15.4662C14.3197 15.4448 13.9413 15.3816 13.6873 15.7588C13.6262 15.8495 13.5038 15.8991 13.4113 15.9698C13.3616 16.0077 13.2627 16.0199 13.2891 16.1049C13.313 16.1815 13.3972 16.2202 13.476 16.2227C13.69 16.229 13.9044 16.2248 14.1186 16.2248ZM13.6308 11.2176C13.7889 11.3986 13.9599 11.5184 14.0203 11.679C14.1542 12.0354 14.4222 12.0113 14.7027 11.9778C14.9156 11.9523 15.0306 11.8165 15.0335 11.6033C15.0364 11.3888 14.9196 11.2374 14.7107 11.2237C14.3648 11.2011 14.0165 11.2176 13.6308 11.2176ZM14.2377 22.5735C14.2367 23.0647 14.2367 23.0647 14.4924 23.0663C14.85 23.0685 15.029 22.9416 15.0345 22.6817C15.04 22.4168 14.858 22.2974 14.5144 22.2689C14.1963 22.2425 14.2249 22.4285 14.2377 22.5735Z" fill="#A38526"/>
<path fill-rule="evenodd" clip-rule="evenodd" d="M25.5714 0.103455C25.8224 0.210416 26.092 0.27915 26.3101 0.452781C26.7555 0.80723 27.0001 1.2522 26.9999 1.81706C26.9992 7.27034 26.9999 12.7237 26.9993 18.1771C26.9993 18.5256 26.8215 18.7338 26.5411 18.7238C26.263 18.7139 26.1083 18.5114 26.1083 18.1509C26.1079 12.7836 26.1079 7.41614 26.1079 2.04872C26.1079 1.26367 25.7938 0.962434 24.9749 0.962434C20.873 0.962358 16.7712 0.962587 12.6693 0.962052C12.2616 0.962052 12.0508 0.756309 12.1147 0.440011C12.1461 0.284806 12.2734 0.208734 12.3669 0.103455C16.7683 0.103455 21.1698 0.103455 25.5714 0.103455Z" fill="#A38526"/>
<path fill-rule="evenodd" clip-rule="evenodd" d="M16.2932 3.82778C18.7195 3.82778 21.1456 3.8275 23.5719 3.82799C24.1002 3.82806 24.2065 3.92961 24.2067 4.42842C24.2068 5.59644 24.2071 6.76438 24.2064 7.93232C24.2062 8.34472 24.0614 8.48212 23.6198 8.48226C18.7392 8.48295 13.8587 8.48295 8.97821 8.48226C8.53071 8.48226 8.38207 8.34856 8.38125 7.93748C8.37863 6.74338 8.37855 5.54922 8.3814 4.35512C8.38237 3.95074 8.51797 3.82855 8.95842 3.82827C11.4034 3.82715 13.8482 3.82778 16.2932 3.82778ZM16.2834 4.61834C14.0358 4.61834 11.7882 4.62134 9.54061 4.61366C9.31536 4.6129 9.23628 4.65481 9.2404 4.88099C9.2557 5.71723 9.25495 6.5541 9.24086 7.3904C9.23711 7.61387 9.2907 7.68473 9.5463 7.68424C14.0508 7.6765 18.5554 7.67726 23.06 7.68277C23.2856 7.68305 23.3673 7.63535 23.3635 7.41042C23.3493 6.57411 23.3483 5.73732 23.3641 4.90101C23.3685 4.66988 23.302 4.61185 23.0543 4.6129C20.7973 4.62217 18.5404 4.61834 16.2834 4.61834Z" fill="#A38526"/>
<path fill-rule="evenodd" clip-rule="evenodd" d="M18.6045 13.1284C18.3757 13.1282 18.1443 13.1514 17.9186 13.124C17.2159 13.0388 16.7384 12.4334 16.7593 11.6795C16.7792 10.9687 17.3194 10.3877 18.0103 10.3582C18.418 10.3407 18.8276 10.3402 19.2351 10.358C19.9291 10.3881 20.4506 10.9533 20.4814 11.6833C20.5129 12.4263 20.0281 13.0384 19.3199 13.124C19.0845 13.1525 18.8432 13.1286 18.6045 13.1284ZM18.644 11.3237C18.4355 11.3237 18.2257 11.3073 18.0191 11.3282C17.7876 11.3516 17.6602 11.5239 17.6675 11.7603C17.6742 11.979 17.797 12.1509 18.0188 12.1593C18.4151 12.1744 18.8126 12.1753 19.2091 12.1605C19.4411 12.1518 19.5706 11.9925 19.5709 11.7446C19.5712 11.4962 19.4393 11.3471 19.2093 11.3265C19.022 11.3099 18.8324 11.3231 18.644 11.3237Z" fill="#A38526"/>
<path fill-rule="evenodd" clip-rule="evenodd" d="M22.3512 10.3521C22.5705 10.3521 22.7906 10.3388 23.0087 10.3546C23.6806 10.403 24.188 10.9732 24.2064 11.6869C24.2249 12.4031 23.7556 13.0036 23.0846 13.091C22.5993 13.1542 22.1084 13.1522 21.6231 13.0934C20.9252 13.0088 20.4571 12.3975 20.4839 11.6424C20.5085 10.9537 21.0468 10.3886 21.7233 10.3506C21.9321 10.3388 22.1419 10.3488 22.3511 10.3488C22.3512 10.3499 22.3512 10.351 22.3512 10.3521ZM22.3595 11.3078C22.1708 11.3078 21.982 11.304 21.7933 11.3087C21.5419 11.3151 21.3955 11.474 21.3913 11.721C21.3869 11.9684 21.528 12.138 21.7801 12.1435C22.1574 12.1516 22.5352 12.1538 22.9123 12.1427C23.1599 12.1355 23.3005 11.9795 23.2955 11.7187C23.2905 11.4575 23.1418 11.3184 22.8958 11.3091C22.7174 11.3026 22.5383 11.3079 22.3595 11.3078Z" fill="#A38526"/>
<path fill-rule="evenodd" clip-rule="evenodd" d="M22.369 17.7931C22.1096 17.7806 21.8692 17.7837 21.6324 17.7545C20.9458 17.67 20.471 17.083 20.483 16.351C20.4943 15.6665 20.9931 15.0924 21.6539 15.0323C22.1205 14.9899 22.5908 14.9877 23.0576 15.0347C23.7141 15.1008 24.1983 15.6762 24.2068 16.3742C24.2155 17.0735 23.7464 17.6613 23.0943 17.7486C22.8482 17.7816 22.5979 17.78 22.369 17.7931ZM22.355 16.8089C22.5438 16.8089 22.7329 16.8176 22.9211 16.8067C23.1545 16.7931 23.2899 16.65 23.2953 16.4068C23.301 16.1474 23.1622 15.9894 22.9162 15.9808C22.539 15.9676 22.1613 15.9714 21.7839 15.979C21.5326 15.9841 21.389 16.1512 21.3907 16.3966C21.3924 16.6415 21.5355 16.803 21.7888 16.8089C21.9774 16.8133 22.1662 16.8097 22.355 16.8089Z" fill="#A38526"/>
<path fill-rule="evenodd" clip-rule="evenodd" d="M18.6204 15.0072C18.8494 15.0073 19.0798 14.9889 19.3068 15.0106C19.9813 15.0753 20.4748 15.6524 20.4827 16.3661C20.4908 17.0779 20.0099 17.6703 19.3362 17.7506C18.8607 17.8073 18.3806 17.8072 17.9049 17.7506C17.2316 17.6706 16.7544 17.0824 16.7587 16.3662C16.7631 15.6578 17.2611 15.075 17.934 15.0106C18.161 14.9889 18.3916 15.0072 18.6204 15.0072ZM18.6037 16.7996C18.8021 16.7996 19.0012 16.8093 19.1989 16.7971C19.4316 16.7828 19.5642 16.6381 19.5699 16.392C19.5757 16.1456 19.4481 15.9805 19.2182 15.9696C18.8221 15.9505 18.4244 15.9527 18.0281 15.9682C17.7934 15.9773 17.6635 16.1549 17.6671 16.3874C17.6705 16.6182 17.8003 16.7837 18.0384 16.7971C18.2262 16.8077 18.4153 16.7992 18.6037 16.7996Z" fill="#A38526"/>
<path fill-rule="evenodd" clip-rule="evenodd" d="M22.3552 20.5856C22.1757 20.5856 21.9962 20.5868 21.8167 20.5854C21.075 20.5797 20.4999 20.0072 20.4832 19.2588C20.4657 18.4778 21.0003 17.8478 21.7371 17.8094C22.1449 17.7881 22.5555 17.787 22.9631 17.8103C23.6915 17.8516 24.2231 18.475 24.2066 19.2373C24.1899 20.0003 23.6279 20.5778 22.8936 20.5853C22.7143 20.5872 22.5347 20.5856 22.3552 20.5856ZM22.3351 19.6351C22.3351 19.6345 22.3351 19.6339 22.3351 19.6334C22.5237 19.6334 22.714 19.6488 22.9011 19.6295C23.1338 19.6056 23.2946 19.4716 23.2961 19.2046C23.2977 18.9373 23.1448 18.792 22.9054 18.7822C22.5384 18.7671 22.17 18.7667 21.803 18.781C21.5419 18.7912 21.3624 18.9832 21.3864 19.2153C21.4145 19.4841 21.5755 19.6235 21.8284 19.6339C21.9971 19.6407 22.1662 19.6351 22.3351 19.6351Z" fill="#A38526"/>
<path fill-rule="evenodd" clip-rule="evenodd" d="M18.6283 21.5176C18.7976 21.5176 18.9671 21.517 19.1364 21.5177C19.8955 21.5213 20.461 22.086 20.4822 22.8612C20.5034 23.6303 19.9579 24.2567 19.2118 24.2947C18.8143 24.3148 18.414 24.3168 18.0166 24.2933C17.2639 24.249 16.7291 23.6068 16.7599 22.8139C16.7884 22.0832 17.364 21.522 18.0903 21.5177C18.2695 21.5167 18.449 21.5176 18.6283 21.5176ZM18.6341 22.4692C18.4455 22.4692 18.2562 22.4581 18.0685 22.472C17.828 22.4896 17.6713 22.641 17.6674 22.8936C17.6633 23.147 17.8106 23.3114 18.0573 23.319C18.434 23.3308 18.8115 23.3339 19.188 23.3182C19.4287 23.3081 19.576 23.1562 19.5704 22.8895C19.5648 22.6224 19.4041 22.4927 19.1698 22.472C18.9923 22.4565 18.8127 22.469 18.6341 22.4692Z" fill="#A38526"/>
<path fill-rule="evenodd" clip-rule="evenodd" d="M22.2446 24.3054C22.0649 24.2923 21.8059 24.3331 21.5484 24.2728C20.8542 24.1102 20.4213 23.4862 20.4899 22.7363C20.5527 22.0488 21.1186 21.5231 21.8034 21.5188C22.162 21.5166 22.5207 21.5169 22.8795 21.5187C23.6208 21.5227 24.1814 22.0868 24.2061 22.8519C24.2311 23.6286 23.6967 24.251 22.9504 24.3032C22.742 24.3178 22.532 24.3054 22.2446 24.3054ZM22.3485 22.4716C22.1698 22.4716 21.9907 22.4628 21.8124 22.4736C21.5626 22.4889 21.3731 22.6805 21.3893 22.9095C21.4076 23.1662 21.5492 23.3196 21.7938 23.3263C22.1609 23.3364 22.5285 23.3388 22.8952 23.3266C23.1334 23.3185 23.2868 23.1823 23.2984 22.9136C23.3088 22.6703 23.1423 22.4907 22.8845 22.4738C22.7064 22.4623 22.5271 22.4716 22.3485 22.4716Z" fill="#A38526"/>
<path fill-rule="evenodd" clip-rule="evenodd" d="M18.5871 20.5609C18.3189 20.5609 18.0425 20.6059 17.7843 20.5521C17.1261 20.4144 16.7055 19.7684 16.7641 19.0509C16.8187 18.3838 17.3678 17.8337 18.0299 17.805C18.4176 17.7883 18.8067 17.7904 19.1947 17.8039C19.9369 17.83 20.4936 18.4493 20.4826 19.2201C20.4719 19.9951 19.9038 20.5796 19.1547 20.5854C18.9656 20.587 18.7763 20.5857 18.5871 20.5857C18.5871 20.5775 18.5871 20.5692 18.5871 20.5609ZM18.6299 19.6313C18.8183 19.6313 19.0089 19.6505 19.1945 19.6264C19.4261 19.5964 19.5788 19.4532 19.5709 19.1842C19.5634 18.9317 19.4178 18.7914 19.1932 18.7819C18.817 18.766 18.4396 18.7694 18.063 18.78C17.8171 18.7869 17.668 18.947 17.6687 19.2016C17.6695 19.4563 17.8268 19.6078 18.065 19.6289C18.252 19.6454 18.4416 19.6321 18.6299 19.6313Z" fill="#A38526"/>
<path fill-rule="evenodd" clip-rule="evenodd" d="M3.22898 8.48017C2.95471 8.48025 2.68027 8.48667 2.40628 8.47852C2.07514 8.46881 1.85178 8.26563 1.86242 7.9989C1.87261 7.74518 2.09028 7.56011 2.40939 7.55666C2.98067 7.5504 3.55223 7.54941 4.12341 7.55773C4.43565 7.56234 4.65681 7.76502 4.65515 8.01677C4.6535 8.26736 4.4296 8.46848 4.1202 8.47811C3.82346 8.48725 3.52608 8.48009 3.22898 8.48017Z" fill="#A38526"/>
<path fill-rule="evenodd" clip-rule="evenodd" d="M4.65503 6.16969C4.64853 6.42948 4.43416 6.62929 4.17124 6.62042C3.92228 6.61196 3.72707 6.41247 3.72415 6.16339C3.72115 5.90966 3.94079 5.6872 4.19178 5.68969C4.44196 5.69209 4.6612 5.91936 4.65503 6.16969Z" fill="#A38526"/>
</svg>
