<svg width="20" height="20" viewBox="0 0 20 20" fill="none" xmlns="http://www.w3.org/2000/svg">
<path d="M9.70418 5.58272C9.35062 5.15844 8.72006 5.10112 8.29578 5.45468C7.8715 5.80824 7.81418 6.43881 8.16774 6.86308L9.70418 5.58272ZM12.2505 10.2004L13.0188 10.8406C13.3278 10.4697 13.3278 9.93107 13.0188 9.56022L12.2505 10.2004ZM8.16774 13.5377C7.81418 13.962 7.8715 14.5926 8.29578 14.9461C8.72006 15.2997 9.35062 15.2424 9.70418 14.8181L8.16774 13.5377ZM8.16774 6.86308L11.4823 10.8406L13.0188 9.56022L9.70418 5.58272L8.16774 6.86308ZM11.4823 9.56022L8.16774 13.5377L9.70418 14.8181L13.0188 10.8406L11.4823 9.56022ZM10 18C5.58172 18 2 14.4183 2 10L1.00516e-07 10C1.62198e-07 15.5228 4.47715 20 10 20L10 18ZM2 10C2 5.58172 5.58172 2 10 2L10 1.14593e-07C4.47715 1.84913e-07 3.88344e-08 4.47715 1.00516e-07 10L2 10ZM10 2C14.4183 2 18 5.58172 18 10L20 10C20 4.47715 15.5228 4.4273e-08 10 1.14593e-07L10 2ZM18 10C18 14.4183 14.4183 18 10 18L10 20C15.5228 20 20 15.5228 20 10L18 10Z" fill="#A38526"/>
</svg>
