<?xml version="1.0" encoding="UTF-8"?>
<svg id="Layer_1" data-name="Layer 1" xmlns="http://www.w3.org/2000/svg" version="1.1" viewBox="0 0 20 20">
  <defs>
    <style>
      .cls-1 {
        fill: #a38526;
        stroke-width: 0px;
      }
    </style>
  </defs>
  <path class="cls-1" d="M12.4,9.8c.2-.2.3-.5,0-.8s-.5-.3-.8,0l.7.8ZM9.9,11.2l-.3.4c.2.2.5.2.7,0l-.3-.4ZM8.1,9c-.2-.2-.6-.2-.8,0-.2.2-.2.6,0,.8l.7-.8ZM11.7,9l-2.1,1.8.7.8,2.1-1.8-.7-.8ZM10.2,10.8l-2.1-1.8-.7.8,2.1,1.8.7-.8ZM5.7,10c0-2.4,1.9-4.3,4.3-4.3v-1.1c-3,0-5.4,2.4-5.4,5.4h1.1ZM10,5.7c2.4,0,4.3,1.9,4.3,4.3h1.1c0-3-2.4-5.4-5.4-5.4v1.1ZM14.3,10c0,2.4-1.9,4.3-4.3,4.3v1.1c3,0,5.4-2.4,5.4-5.4h-1.1ZM10,14.3c-2.4,0-4.3-1.9-4.3-4.3h-1.1c0,3,2.4,5.4,5.4,5.4v-1.1Z"/>
</svg>