<svg width="37" height="37" viewBox="0 0 37 37" fill="none" xmlns="http://www.w3.org/2000/svg">
<path d="M0.699951 35.1998C0.699858 36.0283 1.37136 36.6999 2.19978 36.7C3.02821 36.7001 3.69986 36.0286 3.69995 35.2002L0.699951 35.1998ZM2.20065 29.0118L3.70065 29.012L2.20065 29.0118ZM19.7312 24.325C20.5596 24.325 21.2312 23.6534 21.2312 22.825C21.2312 21.9966 20.5596 21.325 19.7312 21.325V24.325ZM35.2 26.3875C36.0284 26.3875 36.7 25.7159 36.7 24.8875C36.7 24.0591 36.0284 23.3875 35.2 23.3875V26.3875ZM25.9187 23.3875C25.0903 23.3875 24.4187 24.0591 24.4187 24.8875C24.4187 25.7159 25.0903 26.3875 25.9187 26.3875V23.3875ZM29.0593 29.5279C29.0593 30.3563 29.7309 31.0279 30.5593 31.0279C31.3878 31.0279 32.0593 30.3563 32.0593 29.5279H29.0593ZM32.0593 20.2466C32.0593 19.4182 31.3878 18.7466 30.5593 18.7466C29.7309 18.7466 29.0593 19.4182 29.0593 20.2466H32.0593ZM21.325 8.38751C21.325 10.9763 19.2263 13.075 16.6374 13.075V16.075C20.8831 16.075 24.325 12.6332 24.325 8.38751H21.325ZM16.6374 13.075C14.0486 13.075 11.95 10.9763 11.95 8.38751H8.94995C8.94995 12.6332 12.3918 16.075 16.6374 16.075V13.075ZM11.95 8.38751C11.95 5.79868 14.0486 3.70001 16.6374 3.70001V0.700012C12.3918 0.700012 8.94995 4.14182 8.94995 8.38751H11.95ZM16.6374 3.70001C19.2263 3.70001 21.325 5.79868 21.325 8.38751H24.325C24.325 4.14182 20.8831 0.700012 16.6374 0.700012V3.70001ZM3.69995 35.2002L3.70065 29.012L0.700647 29.0116L0.699951 35.1998L3.69995 35.2002ZM8.38815 21.325C4.1428 21.325 0.701124 24.7663 0.700647 29.0116L3.70065 29.012C3.70094 26.4234 5.79952 24.325 8.38815 24.325V21.325ZM8.38815 24.325H19.7312V21.325H8.38815V24.325ZM35.2 23.3875H30.5593V26.3875H35.2V23.3875ZM30.5593 23.3875H25.9187V26.3875H30.5593V23.3875ZM32.0593 29.5279V24.8875H29.0593V29.5279H32.0593ZM32.0593 24.8875V20.2466H29.0593V24.8875H32.0593Z" fill="#A3852F"/>
</svg>
