<svg width="31" height="34" viewBox="0 0 31 34" fill="none" xmlns="http://www.w3.org/2000/svg">
<path d="M26.2149 0.00368698C18.8876 -0.00165963 11.5601 0.00211974 4.23269 9.17124e-05C3.91917 -4.70502e-07 3.61303 0.0398227 3.31077 0.114952C1.31971 0.60979 0.00748546 2.28687 0.00398251 4.37666C-0.00339212 8.81223 0.00177003 13.2479 0.00158566 17.6836C0.00149348 22.1307 0.00103196 26.5779 0.00269125 31.0251C0.00278343 31.2656 -0.0132556 31.5074 0.057633 31.7448C0.361191 32.7623 1.46508 33.1834 2.42129 32.6221C3.71066 31.8649 4.99227 31.0943 6.26707 30.3131C6.54058 30.1455 6.7538 30.1479 7.02509 30.3133C8.40037 31.152 9.79556 31.9584 11.1634 32.8088C11.8606 33.2423 12.5017 33.236 13.1943 32.8099C14.5563 31.9723 15.9412 31.1719 17.3041 30.3357C17.6129 30.1464 17.8501 30.1501 18.1539 30.3381C19.3865 31.1012 20.6338 31.8408 21.8728 32.5937C22.1868 32.7845 22.5173 32.8985 22.8868 32.8608C23.7749 32.7705 24.3395 32.1089 24.3396 31.1552C24.3407 25.1067 24.3422 19.0582 24.3338 13.0095C24.3334 12.7256 24.4016 12.6413 24.6922 12.6462C25.7288 12.6637 26.766 12.6613 27.8028 12.6489C29.2828 12.6311 30.4117 11.5336 30.4284 10.0525C30.451 8.07117 30.4596 6.08886 30.4232 4.10785C30.3822 1.86716 28.4566 0.00534627 26.2149 0.00368698ZM22.1202 4.84062C22.1243 13.1112 22.1226 21.3817 22.1226 29.6523C22.1226 29.7888 22.1226 29.9255 22.1226 30.0573C21.9818 30.1022 21.9086 30.0106 21.8241 29.9601C20.9754 29.4523 20.1224 28.9512 19.2818 28.4301C18.2522 27.7919 17.2395 27.7731 16.1993 28.4153C14.9562 29.1828 13.6937 29.9189 12.4459 30.6789C12.2557 30.7948 12.1199 30.8038 11.9227 30.6824C10.6595 29.9044 9.38608 29.1431 8.117 28.3745C7.11534 27.7679 6.124 27.7725 5.12576 28.3932C4.26606 28.9276 3.39419 29.4427 2.52731 29.9655C2.44167 30.0172 2.35262 30.0633 2.21914 30.1376C2.21914 29.9658 2.21914 29.8437 2.21914 29.7214C2.21914 21.3242 2.21895 12.9269 2.21923 4.52968C2.21923 3.06379 3.06842 2.21128 4.53007 2.2111C10.4047 2.21055 16.2793 2.21082 22.154 2.21082C22.2687 2.21082 22.3836 2.21082 22.575 2.21082C22.0974 3.06683 22.1197 3.9528 22.1202 4.84062ZM28.2193 9.83804C28.219 10.3144 28.0898 10.4396 27.5993 10.4403C26.6323 10.4416 25.6651 10.4299 24.6984 10.4474C24.4187 10.4525 24.3269 10.3906 24.3325 10.0937C24.3523 9.06951 24.3401 8.04471 24.3401 7.02019C24.3402 6.07624 24.3395 5.13238 24.3404 4.18833C24.3412 3.09679 24.9625 2.34762 25.9699 2.22151C26.9089 2.10407 27.9062 2.81149 28.148 3.76715C28.199 3.96875 28.2216 4.17247 28.2213 4.38155C28.2184 6.20041 28.2203 8.01918 28.2193 9.83804Z" fill="#A38526"/>
<path d="M15.6415 14.2521C13.3949 14.2555 11.1482 14.2535 8.90159 14.2536C8.2564 14.2537 7.61076 14.2386 6.96612 14.2583C6.0867 14.2852 5.5584 15.1593 5.96833 15.8967C6.21114 16.3334 6.60919 16.4947 7.0961 16.4931C8.51323 16.4884 9.93036 16.4915 11.3475 16.4915C12.7416 16.4916 14.1356 16.4927 15.5297 16.49C15.6902 16.4897 15.8534 16.4833 16.0106 16.454C16.744 16.3182 17.127 15.5015 16.766 14.8494C16.5217 14.4084 16.1274 14.2513 15.6415 14.2521Z" fill="#A38526"/>
<path d="M6.94788 10.5683C7.89248 10.5782 8.83726 10.5715 9.78195 10.5715C11.7635 10.5716 13.7451 10.5739 15.7266 10.5701C16.4007 10.5687 16.8913 10.1014 16.8996 9.47161C16.908 8.83167 16.4376 8.35877 15.7548 8.35472C14.2917 8.34605 12.8285 8.35204 11.3655 8.35177C9.95996 8.35149 8.55445 8.35048 7.14893 8.3526C6.95452 8.35287 6.75928 8.34181 6.56938 8.41344C6.07454 8.59983 5.75457 9.12196 5.84132 9.61477C5.93802 10.1658 6.38308 10.5622 6.94788 10.5683Z" fill="#A38526"/>
<path d="M15.8066 20.3243C14.3321 20.318 12.8574 20.3223 11.3829 20.3217C9.9428 20.3213 8.50272 20.3206 7.06273 20.3222C6.90261 20.3224 6.74341 20.3165 6.58559 20.374C6.09029 20.5543 5.76028 21.0724 5.83799 21.5648C5.92741 22.1319 6.38039 22.5311 6.9652 22.5319C9.90289 22.5355 12.8407 22.5339 15.7783 22.532C15.8805 22.5319 15.9864 22.5211 16.0843 22.4936C16.6427 22.3364 16.9643 21.8318 16.8839 21.2501C16.8108 20.7212 16.3657 20.3267 15.8066 20.3243Z" fill="#A38526"/>
</svg>
