<svg width="23" height="33" viewBox="0 0 23 33" fill="none" xmlns="http://www.w3.org/2000/svg">
<path fill-rule="evenodd" clip-rule="evenodd" d="M0.000567322 16.4665C0.000567322 12.4294 -0.00109958 8.39237 0.00128115 4.35531C0.00247152 2.20582 1.33961 0.547283 3.43858 0.0803179C3.75736 0.0094361 4.08198 0.0027882 4.40564 0.00266947C8.90951 0.000532335 13.4134 -0.00207972 17.9171 0.00266947C20.0866 0.00492534 21.7204 1.27284 22.2131 3.32224C22.2886 3.63687 22.3233 3.95792 22.3233 4.28277C22.3224 12.4168 22.3255 20.5508 22.3209 28.6846C22.3195 31.0954 20.517 32.9575 18.0799 32.9749C13.4681 33.0082 8.85595 33.0085 4.24422 32.9749C1.77457 32.9571 0.00259055 31.0894 0.00128115 28.6135C-0.000980547 24.5645 0.000567322 20.5154 0.000567322 16.4665ZM2.3269 16.4814C2.3269 20.507 2.34345 24.5329 2.31785 28.5583C2.30905 29.9508 3.34895 30.6893 4.45302 30.6805C8.9332 30.6445 13.4137 30.6658 17.8943 30.6644C18.0976 30.6644 18.3012 30.6748 18.5032 30.6244C19.4745 30.3822 19.996 29.6462 19.9961 28.4985C19.9968 20.4951 19.9966 12.4918 19.9958 4.48841C19.9958 4.34474 19.9911 4.2006 19.9775 4.05789C19.8981 3.21728 19.36 2.59526 18.5376 2.37347C18.2407 2.29344 17.9351 2.36765 17.6435 2.31517C16.9532 2.19086 16.5745 2.47285 16.3453 3.1204C16.0583 3.93109 15.4275 4.24537 14.571 4.23765C12.301 4.21735 10.0306 4.231 7.76033 4.22993C7.61642 4.22981 7.47202 4.22304 7.32882 4.20915C6.81351 4.15917 6.42486 3.90627 6.17476 3.45652C6.01204 3.16385 5.85932 2.86465 5.72195 2.55928C5.64255 2.38297 5.54256 2.30734 5.34091 2.31648C4.95725 2.33393 4.57217 2.31684 4.18804 2.32408C3.39347 2.33904 2.70211 2.84364 2.43749 3.58998C2.33119 3.88977 2.32726 4.20084 2.32726 4.51227C2.32666 8.50207 2.3269 12.4916 2.3269 16.4814Z" fill="#A38526"/>
<path fill-rule="evenodd" clip-rule="evenodd" d="M10.8692 25.2384C11.4345 25.2384 12.0001 25.2302 12.5653 25.2405C13.3613 25.2547 13.9549 25.8324 13.9564 26.5782C13.9579 27.3186 13.4048 27.8916 12.6092 27.9068C11.4375 27.929 10.2647 27.9304 9.09316 27.9055C8.30518 27.8888 7.75319 27.2991 7.76483 26.56C7.77633 25.8268 8.35599 25.2665 9.13165 25.2388C9.15918 25.2379 9.18671 25.2384 9.21438 25.2384C9.76595 25.2383 10.3175 25.2383 10.8692 25.2384Z" fill="#A38526"/>
</svg>
