<svg width="32" height="26" viewBox="0 0 32 26" fill="none" xmlns="http://www.w3.org/2000/svg">
<path d="M15.9729 26C12.3044 26 8.62496 26 4.95637 26C1.9371 26 0.0108218 24.1214 0 21.1478C0 15.7159 0 10.2841 0 4.85219C0.0108218 1.88935 1.9371 0 4.94555 0C12.326 0 19.6956 0 27.0761 0C30.0954 0 32 1.87861 32 4.85219C32 10.2841 32 15.7159 32 21.1478C32 24.1107 30.0954 26 27.0761 26C23.375 26 19.674 26 15.9729 26ZM16.0271 24.6903C16.4058 24.6903 16.7846 24.6689 17.1633 24.6903C17.5529 24.7118 17.6936 24.5401 17.6503 24.1751C17.5529 23.166 18.0832 22.6078 18.9381 22.1354C20.5614 21.2444 21.4163 19.8382 21.5029 17.981C21.5245 17.5301 21.4596 17.1866 21.0592 16.8538C20.4964 16.3922 20.28 15.7267 20.2908 14.9967C20.2908 13.6656 20.2908 12.3344 20.2908 11.014C20.2908 10.2519 20.5289 9.57556 21.1241 9.09249C21.4271 8.83485 21.5245 8.57721 21.5245 8.20149C21.4812 6.27993 20.6371 4.80925 18.9598 3.87531C18.1157 3.40297 17.5746 2.84476 17.672 1.83567C17.7044 1.48142 17.5854 1.29893 17.185 1.30966C16.4275 1.33113 15.6699 1.33113 14.9124 1.30966C14.5012 1.30966 14.3172 1.47069 14.3605 1.87861C14.4687 2.89843 13.8843 3.43518 13.0511 3.89678C11.4494 4.77704 10.6595 6.19405 10.5188 7.98679C10.4863 8.42692 10.5296 8.78117 10.9516 9.11396C11.4927 9.53262 11.7308 10.166 11.7308 10.8745C11.72 12.2915 11.7308 13.7085 11.7308 15.1255C11.7308 15.8662 11.4603 16.4996 10.8975 16.9505C10.5404 17.2403 10.4971 17.5409 10.5188 17.9273C10.6486 19.8274 11.4927 21.2766 13.2026 22.1998C13.7869 22.5111 14.393 22.8869 14.328 23.6061C14.2415 24.6581 14.7609 24.8192 15.605 24.7011C15.7457 24.6796 15.8972 24.7011 16.0379 24.7011L16.0271 24.6903ZM23.6239 1.3204C22.282 1.3204 20.9401 1.3204 19.5982 1.3204C19.3602 1.3204 19.0247 1.22378 18.9598 1.5995C18.9056 1.91082 18.8624 2.25434 19.1545 2.47977C19.3061 2.60859 19.5008 2.68373 19.6848 2.79108C21.1566 3.64988 22.0981 4.90586 22.5959 6.52684C22.7907 7.1602 22.4444 8.0512 23.0396 8.37325C23.559 8.65235 24.349 8.45912 25.02 8.46986C25.4853 8.46986 25.8749 8.60941 25.8532 9.12469C25.8316 9.56482 25.4853 9.72585 25.0416 9.72585C24.3165 9.71511 23.5807 9.70438 22.8556 9.72585C22.0981 9.74732 21.6436 10.123 21.6436 10.9067C21.6327 12.2915 21.6436 13.6763 21.6436 15.0611C21.6436 15.877 22.1089 16.2742 22.9097 16.2849C25.3013 16.2956 27.6929 16.2849 30.0737 16.2956C30.5066 16.2956 30.7122 16.1883 30.7122 15.7267C30.6906 13.9125 30.7014 12.0875 30.7122 10.2733C30.7122 9.8654 30.5715 9.70438 30.1495 9.72585C29.5651 9.74732 28.9807 9.72585 28.3963 9.72585C27.9851 9.72585 27.6929 9.53262 27.6713 9.13543C27.6388 8.67382 27.9635 8.48059 28.4072 8.48059C28.9266 8.48059 29.4569 8.43766 29.9763 8.48059C30.5823 8.53427 30.723 8.27663 30.7122 7.72915C30.6797 6.75227 30.723 5.76466 30.7014 4.78778C30.6473 2.53344 29.4352 1.36334 27.141 1.33113C25.9723 1.3204 24.8143 1.33113 23.6456 1.33113L23.6239 1.3204ZM8.36524 24.6796C9.70714 24.6796 11.049 24.6796 12.3801 24.6796C12.6398 24.6796 13.0186 24.8084 13.0619 24.3576C13.0944 24.0248 13.1593 23.6491 12.7589 23.4451C12.6074 23.3592 12.445 23.2948 12.2935 23.1982C10.8434 22.3179 9.89111 21.0727 9.3933 19.4517C9.20933 18.8398 9.51234 17.981 9.02536 17.6697C8.57085 17.3799 7.79168 17.5623 7.1532 17.5409C6.7095 17.5409 6.40649 17.3799 6.42814 16.8968C6.44978 16.403 6.78526 16.2956 7.21813 16.2956C7.83497 16.2956 8.44099 16.3064 9.05783 16.2956C9.94521 16.2742 10.3889 15.9092 10.4214 15.0611C10.4647 13.7085 10.4538 12.3452 10.4214 10.9926C10.3997 10.2197 9.97768 9.74732 9.16605 9.73658C6.75279 9.72585 4.32871 9.73658 1.91545 9.72585C1.50423 9.72585 1.35272 9.85467 1.35272 10.2733C1.36354 12.0875 1.37437 13.9125 1.35272 15.7267C1.35272 16.1883 1.52587 16.3278 1.96956 16.3064C2.57558 16.2742 3.19242 16.3064 3.80927 16.3064C4.24214 16.3064 4.57761 16.4352 4.58843 16.9182C4.59926 17.4013 4.28542 17.5623 3.84173 17.5623C3.22489 17.5623 2.61887 17.5946 2.00203 17.5623C1.50423 17.5409 1.33108 17.7126 1.35272 18.2064C1.38519 19.2155 1.35272 20.2246 1.35272 21.2337C1.37437 23.4558 2.55394 24.6581 4.78323 24.7118C5.97362 24.7333 7.17484 24.7118 8.36524 24.7118V24.6796ZM23.5374 24.6903C23.5374 24.6903 23.5374 24.6581 23.5374 24.6474C24.9658 24.6474 26.3943 24.7011 27.812 24.6367C29.3378 24.5615 30.4958 23.4451 30.6148 21.9315C30.7122 20.6647 30.6581 19.398 30.7014 18.1313C30.723 17.5838 30.42 17.5409 29.9871 17.5409C28.1258 17.5516 26.2645 17.5409 24.3923 17.5409C23.4328 17.5409 22.87 18.0204 22.7041 18.9794C22.6933 19.0652 22.6608 19.1511 22.6392 19.2263C22.1846 21.0619 21.1349 22.4467 19.4359 23.327C18.9922 23.5524 18.884 23.8852 18.9381 24.3146C19.0139 24.8728 19.4684 24.6581 19.7714 24.6689C21.0267 24.6903 22.2712 24.6689 23.5265 24.6689L23.5374 24.6903ZM8.43017 1.3204C8.43017 1.3204 8.43017 1.3526 8.43017 1.36334C7.00169 1.36334 5.57322 1.29893 4.14474 1.38481C2.62969 1.47069 1.42847 2.72667 1.37437 4.21883C1.32026 5.43187 1.37437 6.64492 1.3419 7.85797C1.3419 8.28737 1.46094 8.46986 1.9371 8.46986C4.15556 8.44839 6.36321 8.44839 8.58167 8.46986C9.07947 8.46986 9.25262 8.2981 9.2418 7.81503C9.22016 6.93476 9.4907 6.10817 9.89111 5.33526C10.4647 4.22956 11.2871 3.33856 12.4018 2.76961C12.9104 2.51197 13.2242 2.18993 13.0511 1.63171C12.8779 1.07349 12.3585 1.3526 12.0014 1.34187C10.811 1.30966 9.60974 1.33113 8.41934 1.33113L8.43017 1.3204Z" fill="#A3852F"/>
</svg>
