<svg width="28" height="27" viewBox="0 0 28 27" fill="none" xmlns="http://www.w3.org/2000/svg">
<path d="M9.51527 26.5117C8.99437 26.4048 8.45343 26.4449 7.92586 26.3914C7.07772 26.3313 6.24295 26.1711 5.43489 25.9106C3.07748 25.1293 1.35451 23.0857 0.980528 20.6282C0.773504 19.406 0.673331 18.1706 0.686687 16.9351C0.673331 14.8114 0.659974 12.6811 0.686687 10.5508C0.63994 9.06819 0.793539 7.58563 1.15416 6.14314C1.78191 3.69892 3.75866 1.8357 6.23627 1.35487C7.61198 1.07439 9.00772 0.95418 10.4101 0.987571C12.7008 0.967537 14.9914 0.980893 17.282 0.980893C17.823 0.934146 18.2971 1.33484 18.3438 1.88245C18.3906 2.42338 17.9899 2.89754 17.4423 2.94428C17.3889 2.94428 17.3421 2.94428 17.2887 2.94428C14.5707 2.95764 11.846 2.90421 9.12793 3.00439C8.2197 3.00439 7.31146 3.1246 6.42994 3.34498C4.60679 3.79242 3.23108 5.28833 2.93724 7.13819C2.73022 8.3603 2.63004 9.59577 2.65008 10.8312C2.61001 13.2821 2.59665 15.7397 2.69683 18.1973C2.7035 19.0588 2.81703 19.9136 3.02406 20.7484C3.46482 22.5849 4.97409 23.9673 6.83731 24.2477C8.4334 24.4948 10.0495 24.595 11.6656 24.5483C13.7092 24.5683 15.7594 24.575 17.8029 24.4882C18.838 24.4948 19.8665 24.3412 20.8549 24.0274C22.4843 23.4731 23.6731 22.0573 23.9335 20.361C24.1873 18.7115 24.2874 17.042 24.234 15.3791C24.2541 13.5292 24.234 11.6794 24.2407 9.82283C24.2407 9.342 24.5746 8.93463 25.0488 8.84781C25.5296 8.76767 26.0037 9.05484 26.1573 9.51563C26.1907 9.63584 26.2108 9.75605 26.1974 9.87626C26.1974 12.2403 26.2108 14.6044 26.1841 16.9618C26.2308 18.4577 26.0705 19.947 25.7032 21.3962C25.0554 23.807 23.0987 25.6435 20.6411 26.131C19.7396 26.3313 18.8247 26.4382 17.9031 26.4515C17.7161 26.4382 17.5358 26.4582 17.3555 26.5117H9.50191H9.51527Z" fill="#1E1E1E"/>
<path d="M27.1858 3.74566C27.0656 4.27992 26.8452 4.78746 26.5313 5.24158C25.4428 6.68407 23.3926 6.97123 21.9501 5.88269C20.5076 4.79414 20.2204 2.74393 21.309 1.30144C22.3975 -0.141049 24.4477 -0.428212 25.8902 0.660335C26.5113 1.12781 26.9454 1.80231 27.1123 2.56362C27.1323 2.65044 27.1591 2.73725 27.1858 2.82407V3.74566ZM23.9135 4.57376C24.6347 4.57376 25.2157 3.99276 25.2224 3.27819C25.209 2.56362 24.6347 1.98262 23.9201 1.96926C23.1989 1.96926 22.6179 2.55694 22.6179 3.27151C22.6179 3.98608 23.1855 4.57376 23.9001 4.57376C23.9001 4.57376 23.9068 4.57376 23.9135 4.57376Z" fill="#1E1E1E"/>
<path d="M11.1181 11.1718C12.5338 11.1785 13.8027 12.0333 14.3436 13.3423C14.6508 14.1436 15.5457 14.5443 16.3471 14.2371C16.3471 14.2371 16.3538 14.2371 16.3605 14.2371C16.7545 14.0769 17.0683 13.7697 17.2353 13.3823C17.8497 12.1268 18.4641 10.8713 19.0785 9.61582C19.2321 9.2552 19.586 9.02814 19.9734 9.02814C20.5143 9.02814 20.9617 9.46222 20.9617 10.0032C20.9617 10.1501 20.9283 10.297 20.8682 10.4306C20.2004 11.7929 19.5593 13.182 18.8447 14.5176C18.2437 15.7197 16.9682 16.4276 15.6259 16.3074C14.2835 16.2873 13.0881 15.4726 12.5739 14.2371C12.3335 13.4959 11.5789 13.0484 10.8109 13.1887C10.2966 13.2688 9.85589 13.6094 9.65554 14.0902C9.04783 15.339 8.43343 16.5812 7.82571 17.83C7.68547 18.1906 7.34488 18.4377 6.95755 18.4644C6.42997 18.5112 5.95582 18.1238 5.90907 17.5963C5.89571 17.436 5.92243 17.2757 5.98253 17.1221C6.66371 15.6796 7.33821 14.2371 8.1062 12.8481C8.72059 11.7729 9.87592 11.1251 11.1114 11.1652" fill="#1E1E1E"/>
</svg>
