<svg width="20" height="20" viewBox="0 0 20 20" fill="none" xmlns="http://www.w3.org/2000/svg">
<path d="M14.4173 9.70418C14.8416 9.35062 14.8989 8.72006 14.5453 8.29578C14.1918 7.8715 13.5612 7.81418 13.1369 8.16774L14.4173 9.70418ZM9.7996 12.2505L9.15941 13.0188C9.53026 13.3278 10.0689 13.3278 10.4398 13.0188L9.7996 12.2505ZM6.46228 8.16774C6.038 7.81418 5.40744 7.8715 5.05387 8.29578C4.70031 8.72006 4.75763 9.35062 5.18191 9.70418L6.46228 8.16774ZM13.1369 8.16774L9.15941 11.4823L10.4398 13.0188L14.4173 9.70418L13.1369 8.16774ZM10.4398 11.4823L6.46228 8.16774L5.18191 9.70418L9.15941 13.0188L10.4398 11.4823ZM2 10C2 5.58172 5.58172 2 10 2L10 -7.86805e-07C4.47715 -1.26963e-06 1.26963e-06 4.47715 7.86805e-07 10L2 10ZM10 2C14.4183 2 18 5.58172 18 10L20 10C20 4.47715 15.5228 -3.03982e-07 10 -7.86805e-07L10 2ZM18 10C18 14.4183 14.4183 18 10 18L10 20C15.5228 20 20 15.5228 20 10L18 10ZM10 18C5.58172 18 2 14.4183 2 10L7.86805e-07 10C3.03982e-07 15.5228 4.47715 20 10 20L10 18Z" fill="#A38526"/>
</svg>
