<svg width="28" height="28" viewBox="0 0 28 28" fill="none" xmlns="http://www.w3.org/2000/svg">
<path fill-rule="evenodd" clip-rule="evenodd" d="M0 13.7215C0 12.7027 0 11.6838 0 10.6649C0.0164451 10.5123 0.0408215 10.3601 0.0478798 10.2071C0.114388 8.77126 0.213059 7.33726 0.44198 5.91774C0.82975 3.51276 2.18109 1.83063 4.37622 0.818305C5.26338 0.409142 6.2335 0.31462 7.18709 0.199577C9.78527 -0.113826 12.3814 -0.0703852 14.9555 0.417292C17.6644 0.930438 19.3708 2.59285 20.1575 5.19474C20.4574 6.18669 20.4931 7.23779 20.5674 8.27085C20.6083 8.84082 20.1538 9.30361 19.5859 9.33934C19.0355 9.37405 18.5568 8.94546 18.5022 8.36959C18.4283 7.59143 18.35 6.814 18.2293 6.04101C17.9832 4.46643 16.5815 2.91367 15.0321 2.54941C14.4762 2.41879 13.9071 2.33431 13.3396 2.26453C11.3631 2.02156 9.38455 2.0212 7.40728 2.26358C7.22559 2.28585 7.03639 2.28658 6.8146 2.38452C7.37345 2.58615 7.87997 2.78306 8.37143 3.01496C9.45819 3.5276 10.5551 4.04577 11.4492 4.85623C13.115 6.36635 14.0388 8.30505 14.3986 10.4981C14.6917 12.2856 14.7361 14.1004 14.7834 15.9094C14.8335 17.8197 14.7954 19.7296 14.6334 21.635C14.6134 21.8703 14.6541 21.9337 14.9015 21.8661C16.6135 21.398 17.6948 20.2873 18.1649 18.6017C18.3944 17.7792 18.4158 16.9134 18.4972 16.0631C18.5592 15.4182 19.0403 14.9773 19.6347 15.0374C20.2339 15.098 20.629 15.6223 20.5605 16.2622C20.5265 16.5786 20.5032 16.8962 20.4647 17.212C20.3558 18.1041 20.3098 19.0142 19.9488 19.8511C18.9319 22.2087 17.1875 23.6561 14.6113 24.0213C14.4056 24.0504 14.3438 24.1386 14.2989 24.3157C14.1292 24.9853 13.8364 25.5979 13.3819 26.1221C12.6726 26.9402 11.8066 27.3334 10.6966 27.1677C9.17273 26.9401 7.7292 26.469 6.34002 25.8205C5.30107 25.3354 4.26088 24.828 3.4005 24.0639C1.76246 22.6093 0.864095 20.7236 0.440088 18.6033C0.218661 17.496 0.2052 16.3624 0.105875 15.2398C0.0610508 14.7342 0.0821527 14.2243 0 13.7215Z" fill="#A38526"/>
<path fill-rule="evenodd" clip-rule="evenodd" d="M27.946 12.4662C27.7987 12.7723 27.5644 13.0078 27.3274 13.2439C26.2062 14.3603 25.0934 15.485 23.968 16.5972C23.3467 17.2111 22.3872 16.956 22.19 16.134C22.097 15.7467 22.2198 15.4176 22.4964 15.1407C23.0554 14.5811 23.616 14.0227 24.1734 13.4615C24.2342 13.4002 24.3192 13.3549 24.3425 13.2544C24.2455 13.2037 24.1453 13.2301 24.0499 13.23C21.8039 13.2281 19.5579 13.231 17.3119 13.227C16.5584 13.2256 16.06 12.5773 16.2679 11.8863C16.4021 11.4406 16.7965 11.1567 17.3023 11.1556C18.5754 11.1526 19.8484 11.1545 21.1214 11.1545C22.1936 11.1544 23.2658 11.1544 24.3396 11.1544C24.3605 11.0387 24.2677 11.0048 24.2162 10.9528C23.6592 10.3909 23.0976 9.83378 22.5397 9.2729C22.0668 8.7973 22.0396 8.17952 22.4684 7.74612C22.893 7.3171 23.5302 7.33434 23.9971 7.79961C25.195 8.99348 26.387 10.1935 27.5861 11.3861C27.744 11.5431 27.8338 11.7373 27.946 11.9205C27.946 12.1023 27.946 12.2842 27.946 12.4662Z" fill="#A38526"/>
</svg>
