<svg width="27" height="18" viewBox="0 0 27 18" fill="none" xmlns="http://www.w3.org/2000/svg">
<path fill-rule="evenodd" clip-rule="evenodd" d="M13.499 0C19.2363 0.218477 23.6481 2.69037 26.5979 7.6267C27.1392 8.53241 27.1295 9.4736 26.5957 10.3843C24.2757 14.3419 20.8529 16.8225 16.3314 17.7179C10.0096 18.9699 3.56639 15.9708 0.395181 10.3797C-0.119821 9.47157 -0.140519 8.54489 0.386462 7.64519C2.73752 3.63201 6.21002 1.16448 10.8055 0.261028C11.691 0.0869837 12.5867 0.0185698 13.499 0ZM13.4643 16.2959C14.214 16.2838 14.9523 16.2317 15.6782 16.0984C19.7986 15.3412 22.9316 13.1759 25.0663 9.59389C25.3082 9.18784 25.2975 8.81328 25.0631 8.404C22.2821 3.54773 16.6828 0.925031 11.1528 1.94825C7.10576 2.69698 4.04751 4.87799 1.94466 8.3855C1.69736 8.79787 1.68386 9.18513 1.93519 9.60073C4.54864 13.9235 8.43697 16.0758 13.4643 16.2959Z" fill="#A38526"/>
<path fill-rule="evenodd" clip-rule="evenodd" d="M8 8.99961C8.00151 6.22691 10.4736 3.9864 13.5162 4.00006C16.5604 4.01372 19.0005 6.23941 19 9.00164C18.9994 11.7744 16.5307 14.0115 13.4841 14C10.441 13.9883 7.99857 11.7614 8 8.99961ZM9.80265 9.01059C9.8075 10.8459 11.4918 12.3685 13.5114 12.3631C15.5316 12.3578 17.2031 10.8284 17.1977 8.99036C17.1921 7.1524 15.5111 5.6335 13.489 5.63928C11.4672 5.64507 9.7978 7.17176 9.80265 9.01059Z" fill="#A38526"/>
</svg>
