<svg width="35" height="33" viewBox="0 0 35 33" fill="none" xmlns="http://www.w3.org/2000/svg">
<mask id="path-1-inside-1_381_154" fill="white">
<path d="M13.6562 23.0191C13.5133 23.0197 13.3706 23.0201 13.2283 23.0195C13.3023 23.0197 13.3757 23.021 13.4499 23.021C13.5184 23.021 13.5875 23.0195 13.6562 23.0191Z"/>
</mask>
<path d="M13.6562 23.0191C13.5133 23.0197 13.3706 23.0201 13.2283 23.0195C13.3023 23.0197 13.3757 23.021 13.4499 23.021C13.5184 23.021 13.5875 23.0195 13.6562 23.0191Z" fill="#A3852F"/>
<path d="M13.6562 23.0191L13.6733 26.019L13.6439 20.0191L13.6562 23.0191ZM13.2283 23.0195L13.2362 20.0195L13.2159 26.0194L13.2283 23.0195ZM13.6439 20.0191C13.5028 20.0197 13.3701 20.02 13.2406 20.0195L13.2159 26.0194C13.3711 26.0201 13.5239 26.0196 13.6685 26.019L13.6439 20.0191ZM13.2204 26.0195C13.244 26.0195 13.2685 26.0198 13.3092 26.0202C13.3456 26.0205 13.3961 26.021 13.4499 26.021V20.021C13.3005 20.021 13.4541 20.0201 13.2362 20.0195L13.2204 26.0195ZM13.4499 26.021C13.5049 26.021 13.556 26.0204 13.5913 26.02C13.632 26.0194 13.6525 26.0191 13.6733 26.019L13.6392 20.0191C13.467 20.0201 13.5424 20.021 13.4499 20.021V26.021Z" fill="#A38526" mask="url(#path-1-inside-1_381_154)"/>
<mask id="path-3-inside-2_381_154" fill="white">
<path d="M21.8597 33H8.70846C5.85565 33 3.53467 30.679 3.53467 27.8262V23.6456C3.53467 23.5033 3.59656 23.3684 3.70433 23.2756C3.8123 23.1827 3.9556 23.1411 4.09539 23.163C7.3375 23.6516 10.4849 23.8994 13.4498 23.8994C18.3795 23.8994 22.7281 23.2086 26.3743 21.8463C26.5241 21.7901 26.6918 21.8109 26.8234 21.9025C26.9548 21.9937 27.0332 22.1434 27.0332 22.3035V27.826C27.0334 30.679 24.7125 33 21.8597 33ZM4.51085 24.2104V27.8262C4.51085 30.1408 6.39392 32.0238 8.70846 32.0238H21.8597C24.1742 32.0238 26.0573 30.1408 26.0573 27.8262V22.9976C22.4418 24.2442 18.2048 24.8758 13.45 24.8758C10.6079 24.8758 7.60322 24.652 4.51085 24.2104Z"/>
</mask>
<path d="M21.8597 33H8.70846C5.85565 33 3.53467 30.679 3.53467 27.8262V23.6456C3.53467 23.5033 3.59656 23.3684 3.70433 23.2756C3.8123 23.1827 3.9556 23.1411 4.09539 23.163C7.3375 23.6516 10.4849 23.8994 13.4498 23.8994C18.3795 23.8994 22.7281 23.2086 26.3743 21.8463C26.5241 21.7901 26.6918 21.8109 26.8234 21.9025C26.9548 21.9937 27.0332 22.1434 27.0332 22.3035V27.826C27.0334 30.679 24.7125 33 21.8597 33ZM4.51085 24.2104V27.8262C4.51085 30.1408 6.39392 32.0238 8.70846 32.0238H21.8597C24.1742 32.0238 26.0573 30.1408 26.0573 27.8262V22.9976C22.4418 24.2442 18.2048 24.8758 13.45 24.8758C10.6079 24.8758 7.60322 24.652 4.51085 24.2104Z" fill="#A3852F"/>
<path d="M3.70433 23.2756L5.66111 25.5496L5.66144 25.5493L3.70433 23.2756ZM4.09539 23.163L3.63175 26.1269L3.64 26.1282L3.64825 26.1295L4.09539 23.163ZM26.3743 21.8463L27.4243 24.6565L27.4289 24.6548L26.3743 21.8463ZM26.8234 21.9025L25.1098 24.365L25.1131 24.3672L26.8234 21.9025ZM27.0332 27.826L24.0332 27.826L24.0332 27.8262L27.0332 27.826ZM4.51085 24.2104L4.93499 21.2405L1.51085 20.7515L1.51085 24.2104H4.51085ZM26.0573 22.9976H29.0573V18.7899L25.0794 20.1615L26.0573 22.9976ZM21.8597 30H8.70846V36H21.8597V30ZM8.70846 30C7.5125 30 6.53467 29.0222 6.53467 27.8262H0.534668C0.534668 32.3359 4.1988 36 8.70846 36V30ZM6.53467 27.8262V23.6456H0.534668V27.8262H6.53467ZM6.53467 23.6456C6.53467 24.3766 6.21597 25.0721 5.66111 25.5496L1.74755 21.0016C0.977147 21.6646 0.534668 22.63 0.534668 23.6456H6.53467ZM5.66144 25.5493C5.1136 26.0209 4.37515 26.2432 3.63175 26.1269L4.55902 20.199C3.53605 20.039 2.51099 20.3445 1.74722 21.0019L5.66144 25.5493ZM3.64825 26.1295C7.02307 26.6381 10.3205 26.8994 13.4498 26.8994V20.8994C10.6493 20.8994 7.65193 20.6652 4.54252 20.1965L3.64825 26.1295ZM13.4498 26.8994C18.6466 26.8994 23.3661 26.1728 27.4243 24.6565L25.3243 19.036C22.0901 20.2445 18.1125 20.8994 13.4498 20.8994V26.8994ZM27.4289 24.6548C26.655 24.9454 25.7878 24.8368 25.1099 24.365L28.5369 19.44C27.5958 18.7851 26.3931 18.6347 25.3197 19.0377L27.4289 24.6548ZM25.1131 24.3672C24.4375 23.8985 24.0332 23.1278 24.0332 22.3035H30.0332C30.0332 21.1591 29.472 20.0889 28.5337 19.4378L25.1131 24.3672ZM24.0332 22.3035V27.826H30.0332V22.3035H24.0332ZM24.0332 27.8262C24.0333 29.0222 23.0556 30 21.8597 30V36C26.3693 36 30.0336 32.3358 30.0332 27.8258L24.0332 27.8262ZM1.51085 24.2104V27.8262H7.51085V24.2104H1.51085ZM1.51085 27.8262C1.51085 31.7976 4.73707 35.0238 8.70846 35.0238V29.0238C8.05077 29.0238 7.51085 28.4839 7.51085 27.8262H1.51085ZM8.70846 35.0238H21.8597V29.0238H8.70846V35.0238ZM21.8597 35.0238C25.831 35.0238 29.0573 31.7976 29.0573 27.8262H23.0573C23.0573 28.4839 22.5173 29.0238 21.8597 29.0238V35.0238ZM29.0573 27.8262V22.9976H23.0573V27.8262H29.0573ZM25.0794 20.1615C21.8442 21.2769 17.9494 21.8758 13.45 21.8758V27.8758C18.4602 27.8758 23.0395 27.2115 27.0352 25.8337L25.0794 20.1615ZM13.45 21.8758C10.7631 21.8758 7.9006 21.6641 4.93499 21.2405L4.08672 27.1803C7.30584 27.64 10.4528 27.8758 13.45 27.8758V21.8758Z" fill="#A38526" mask="url(#path-3-inside-2_381_154)"/>
<path d="M20.0605 3.29066L20.0786 3.29914L20.0605 3.29066Z" fill="#A3852F" stroke="#A38526" stroke-width="3"/>
<path d="M5.80559 17.5986C6.09703 17.2898 6.37454 16.9838 6.62448 16.7024C6.96662 16.3171 7.27426 15.9578 7.51857 15.6676L8.40808 16.4654C8.32455 16.5099 8.24612 16.5514 8.1694 16.5908C8.10993 16.6212 8.05019 16.6508 7.98028 16.6854C7.97092 16.69 7.96139 16.6947 7.95164 16.6995L7.94957 16.7006C7.85508 16.7475 7.76819 16.7903 7.6837 16.8304L5.80559 17.5986ZM5.80559 17.5986C5.86223 17.5792 5.91784 17.5599 5.97263 17.5406L5.97276 17.5405C6.04412 17.5153 6.11792 17.4881 6.1982 17.4583C6.29152 17.4236 6.38108 17.3898 6.46877 17.3556L6.47102 17.3548C6.54526 17.326 6.62018 17.2962 6.69595 17.2654L6.69804 17.2645C6.78423 17.2297 6.87225 17.1929 6.96424 17.1539L5.80559 17.5986ZM8.1012 14.962C8.10115 14.9621 8.1011 14.9621 8.10105 14.9622L8.1012 14.962ZM8.1012 14.962C8.10126 14.9619 8.10133 14.9619 7.50122 14.4807L8.10135 14.9618L8.10157 14.9616C8.10145 14.9617 8.10133 14.9619 8.1012 14.962ZM10.7685 16.8138L10.378 16.2166C10.3684 16.2082 10.3587 16.1997 10.3489 16.1912L9.96622 15.848C9.95052 16.0285 9.95534 16.1956 9.97579 16.3484C9.97582 16.3487 9.97585 16.3489 9.97588 16.3491C9.98586 16.4235 9.99954 16.4945 10.0164 16.562C10.0171 16.565 10.0179 16.5681 10.0187 16.5711C10.0762 16.797 10.1689 16.9832 10.2752 17.1257C10.2807 17.1224 10.2863 17.119 10.2918 17.1157C10.3311 17.092 10.3703 17.0684 10.4094 17.044C10.5297 16.9691 10.6492 16.8915 10.7685 16.8138ZM10.7685 16.8138L10.3812 16.2194C10.4434 16.2736 10.503 16.3258 10.5583 16.3746L10.7791 16.8069C10.7755 16.8092 10.772 16.8115 10.7685 16.8138ZM7.4584 16.9354L7.45886 16.9351C7.53615 16.8997 7.61064 16.8651 7.6834 16.8306L7.4584 16.9354ZM7.4584 16.9354C7.36599 16.9778 7.27748 17.018 7.19087 17.0562M7.4584 16.9354L7.19087 17.0562M7.19087 17.0562C7.11842 17.0881 7.04409 17.12 6.96492 17.1536L7.19087 17.0562Z" fill="#A3852F" stroke="#A38526" stroke-width="3"/>
<path d="M10.1819 22.5308C10.2914 22.5372 10.6397 22.5562 10.711 22.5593M10.1819 22.5308L10.2726 21.0335L10.2707 21.0334C10.38 21.0398 10.7175 21.0581 10.7767 21.0607L10.7851 21.0611L10.7851 21.0611C10.8532 21.0645 10.9846 21.0706 11.0782 21.0749L11.0091 22.5682L11.0783 21.0749C11.1665 21.079 11.4723 21.0914 11.5462 21.0939C11.6267 21.0966 11.8331 21.1035 12.0065 21.1091L12.0216 21.1095L12.1617 21.1131L12.1625 21.1131C12.2431 21.1152 12.3231 21.1167 12.41 21.1183C12.4282 21.1186 12.4466 21.1189 12.4654 21.1193L12.4673 21.1193L12.6048 21.1221L12.6196 21.1224C12.7878 21.1246 13.0263 21.1269 13.1508 21.1276C13.2789 21.1282 13.4419 21.1286 13.5125 21.1284L13.5163 21.1284C13.586 21.1284 13.7847 21.1273 13.9622 21.1261C13.9638 21.1261 13.9654 21.1261 13.967 21.1261L13.9632 21.1261L13.9771 21.1259L14.1156 21.1241C14.1162 21.1241 14.1167 21.1241 14.1173 21.1241C14.2452 21.1221 14.3718 21.12 14.4979 21.1174L14.4988 21.1174C14.6543 21.1142 14.8113 21.1097 14.9718 21.1046L14.9724 21.1046C14.9906 21.104 15.0086 21.1034 15.0264 21.1028C15.138 21.0993 15.2425 21.096 15.3474 21.0919L15.3475 21.0919L15.4953 21.0861L15.508 21.0856C15.6932 21.0762 15.8611 21.0677 15.889 21.0662L15.898 21.0657L15.898 21.0657C15.9291 21.0642 16.029 21.0593 16.1203 21.0546L16.1272 21.0542L16.199 21.0502L16.2023 21.05L16.352 21.0408L16.3668 21.0399L16.455 21.0336C16.6134 21.0223 16.7579 21.012 16.7928 21.0098C16.8104 21.0086 16.8372 21.0067 16.8703 21.0044C16.9039 21.0021 16.9441 20.9993 16.9879 20.9963L17.0499 20.9914L17.0509 20.9913L17.2347 20.9768L17.2499 20.9756L17.2703 20.9737C17.4875 20.9533 17.7157 20.9319 17.7881 20.9254C17.8494 20.9196 18.0279 20.9016 18.1853 20.8848C18.2556 20.8773 18.4049 20.86 18.5512 20.8426L18.7437 20.8195L18.8096 20.8115C18.8229 20.8098 18.8299 20.8089 18.8325 20.8086C18.8336 20.8085 18.8338 20.8084 18.8332 20.8085C18.8919 20.8006 19.1355 20.7684 19.3783 20.7367L19.394 20.7344L19.5864 20.706L19.5896 20.7056L19.6411 20.6979C19.7143 20.6859 19.7985 20.6725 19.8339 20.6669L20.255 20.6004L20.2672 20.5983L20.4284 20.5705L20.4298 20.5702L20.4996 20.5582C20.5861 20.542 20.68 20.5246 20.7131 20.5186L21.098 20.4473L21.1078 20.4454L21.2578 20.4151L21.2587 20.4149C21.3696 20.3927 21.482 20.3687 21.6023 20.3429L21.6065 20.3419C21.7738 20.3065 21.9309 20.2724 22.0855 20.2371C22.1949 20.212 22.3044 20.1856 22.4242 20.1568L22.4388 20.1533C22.5949 20.1154 22.7484 20.0771 22.8998 20.0374L22.9049 20.0361C23.0194 20.0065 23.1346 19.9756 23.2531 19.9432C23.4035 19.9018 23.5554 19.8582 23.7116 19.8125C23.7121 19.8124 23.7125 19.8123 23.7129 19.8122L23.7392 19.8044C23.8516 19.7713 23.9517 19.7419 24.0509 19.7111L24.0534 19.7103L24.1958 19.6665L24.203 19.6642L24.4275 19.5905L24.5066 19.5645C24.5302 19.5567 24.5361 19.5547 24.533 19.5557L24.5478 19.5507L24.5615 19.5464C24.5607 19.5466 24.5646 19.5454 24.5774 19.5412L24.6268 19.525L24.7574 19.4821L24.7577 19.4819L24.838 19.4541L24.8398 19.4535L24.9855 19.4033L24.9916 19.4012L25.3597 19.2657L25.3628 19.2646L25.549 19.1968L25.6102 19.1732L25.6122 19.1724L25.7699 19.112L25.7756 19.1098L26.1749 18.9455L26.1854 18.9412L26.1854 18.9413L26.3307 18.8828L26.3669 18.8674C26.3674 18.8672 26.3679 18.867 26.3684 18.8668C26.6338 18.7534 26.8748 18.6451 27.1052 18.5363C28.4793 17.8861 30.0916 16.5748 31.4289 15.3316C31.9717 14.8271 32.4487 14.3533 32.8205 13.9722L21.9233 8.57231C21.8338 8.72191 21.7266 8.89802 21.6024 9.09702C21.1877 9.76136 20.5812 10.6844 19.8068 11.7311C18.2675 13.8117 16.0213 16.441 13.2538 18.4864M10.1819 22.5308L9.90347 22.514L9.99746 21.0169L10.27 21.0334L10.1819 22.5308ZM10.711 22.5593L13.2538 18.4864M10.711 22.5593C10.782 22.5628 10.9162 22.569 11.0089 22.5733C11.1018 22.5776 11.4144 22.5903 11.4958 22.5931C11.5772 22.5958 11.7877 22.6028 11.9632 22.6085L10.711 22.5593ZM13.2538 18.4864C13.0852 18.611 12.9127 18.7358 12.7363 18.8595M13.2538 18.4864L12.7363 18.8595M12.7363 18.8595C11.5676 19.6789 10.361 20.3787 9.12191 20.9548C9.12593 20.9551 9.12896 20.9553 9.13088 20.9555C9.15834 20.9577 9.29304 20.9679 9.43259 20.9784C9.56125 20.988 9.95259 21.0141 9.99672 21.0169L12.7362 18.8595C12.7363 18.8595 12.7363 18.8595 12.7363 18.8595ZM2.73988 21.5556L2.75299 21.6602L2.73988 21.5556ZM2.73988 21.5556L2.73988 21.5555L2.73988 21.5556ZM17.925 22.417L17.8564 21.6807L17.7377 22.4365C17.8218 22.4286 17.8886 22.4224 17.9217 22.4194C17.9228 22.4186 17.9239 22.4178 17.925 22.417ZM17.925 22.417L17.8578 21.6715L17.8656 21.6221C18.1037 21.9336 18.1455 22.2519 17.925 22.417ZM17.925 22.417L17.9252 22.4191L17.925 22.417ZM17.0143 22.4777C17.0436 22.4595 17.0692 22.4391 17.0912 22.417L16.8821 22.3784L16.449 22.2985L16.2712 22.2657L17.0143 22.4777ZM17.0143 22.4777C16.9703 22.4708 16.928 22.4654 16.8875 22.4613C16.7147 22.4441 16.5737 22.4524 16.462 22.4809C16.4111 22.4939 16.3662 22.5111 16.3273 22.5319L17.0143 22.4777ZM1.36867 21.3912C1.36562 21.3914 1.36576 21.3922 1.36886 21.3936L1.36867 21.3912ZM1.39776 21.3894L1.39849 21.4024C1.3985 21.4024 1.39852 21.4024 1.39854 21.4024L1.39776 21.3894ZM2.11658 21.3364C2.11647 21.3364 2.11636 21.3364 2.11624 21.3364L2.07778 21.5409L2.11658 21.3364ZM22.2537 8.00232C22.2536 8.00245 22.2535 8.00259 22.2534 8.00272C22.2535 8.00256 22.2536 8.0024 22.0161 7.87204L22.2537 8.00232ZM21.9174 21.8094C22.0033 21.7912 22.0879 21.7731 22.1717 21.7548C22.1066 21.491 21.9633 21.3227 21.8122 21.313C21.8117 21.3129 21.8112 21.3129 21.8107 21.3129C21.7674 21.3104 21.7235 21.321 21.6805 21.346L21.678 21.5605C21.7134 21.6681 21.7227 21.7687 21.7045 21.8547C21.7756 21.8398 21.8465 21.8246 21.9174 21.8094ZM20.3924 21.3986C20.5268 21.5934 20.5699 21.789 20.4961 21.9414L20.3924 21.3986ZM20.4145 22.0506C20.3936 22.0701 20.3697 22.0884 20.3428 22.1052L20.0669 22.1487C20.0322 22.1542 19.9451 22.168 19.8737 22.1797C19.8602 22.1798 19.8469 22.1799 19.8337 22.1798L20.4145 22.0506ZM17.1564 22.3276C17.142 22.3557 17.1237 22.382 17.1015 22.4062L16.8259 21.5164L16.8532 21.4831C16.9291 21.5601 16.9937 21.6394 17.0457 21.7183C17.0734 21.7603 17.0974 21.8021 17.1178 21.8435C17.118 21.8439 17.1181 21.8442 17.1183 21.8446C17.2064 22.0243 17.2242 22.1954 17.1565 22.3274C17.1564 22.3275 17.1564 22.3276 17.1564 22.3276Z" fill="#A3852F" stroke="#A38526" stroke-width="3"/>
</svg>
