<svg width="27" height="24" viewBox="0 0 27 24" fill="none" xmlns="http://www.w3.org/2000/svg">
<path d="M0 21.5696V9.40852C0.0500357 9.37465 0.0451018 9.32003 0.0563774 9.26957C0.231855 8.48215 0.663852 7.86756 1.35449 7.42995C1.74138 7.18522 1.74773 7.1866 1.6547 6.74623C1.50459 6.03831 1.49755 5.34353 1.83229 4.67709C2.32349 3.70094 3.14309 3.2101 4.22485 3.02966C7.06984 2.55541 9.90848 2.04522 12.7499 1.5523C15.6259 1.05316 18.5041 0.565779 21.3779 0.0569636C23.0911 -0.245837 24.557 0.678466 24.91 2.35562C25.144 3.46727 25.323 4.58999 25.5246 5.70855C25.996 8.3266 26.4576 10.946 26.9404 13.5627C27.2462 15.2198 26.3547 16.6605 24.7451 17.0408C24.3533 17.1334 23.9551 17.2129 23.5548 17.2502C23.2962 17.2744 23.2694 17.3871 23.2701 17.5973C23.2758 18.8133 23.292 20.03 23.2617 21.2454C23.2229 22.785 21.9509 23.9934 20.38 23.9955C14.5512 24.0017 8.72172 24.0017 2.89291 23.9941C1.92814 23.9927 1.15435 23.5807 0.563783 22.8299C0.267797 22.4531 0.139536 22.01 0 21.5689V21.5696ZM11.6386 15.6152C8.37852 15.6152 5.11844 15.6173 1.85766 15.6104C1.64131 15.6104 1.57859 15.6609 1.58 15.8786C1.58916 17.5938 1.58353 19.3097 1.58564 21.0249C1.58705 21.889 2.13251 22.4372 3.01272 22.4379C8.75978 22.4414 14.5068 22.4414 20.2539 22.4379C21.1376 22.4379 21.6817 21.8925 21.6824 21.0304C21.6831 19.3325 21.6775 17.6339 21.6887 15.936C21.6901 15.6858 21.6429 15.6069 21.366 15.6076C18.1235 15.6187 14.8811 15.6152 11.6379 15.6152H11.6386ZM12.0163 6.98197C14.776 6.98197 17.5358 6.97921 20.2955 6.98335C21.3223 6.98474 22.1489 7.39193 22.7508 8.21184C23.1391 8.7407 23.28 9.34147 23.2772 9.98993C23.2687 11.8088 23.2772 13.6284 23.2694 15.4473C23.2687 15.6526 23.3152 15.7231 23.5302 15.6747C23.8121 15.6111 24.1003 15.5765 24.3829 15.5171C25.07 15.3719 25.5105 14.7317 25.3921 14.0459C25.211 12.9944 25.0249 11.9436 24.836 10.8935C24.3512 8.20009 23.86 5.50807 23.3787 2.81466C23.2102 1.86962 22.5887 1.43823 21.6352 1.60622C18.7014 2.12195 15.7662 2.63215 12.831 3.13958C9.99094 3.63112 7.14947 4.11435 4.30871 4.60589C3.47079 4.75106 3.02329 5.41266 3.18819 6.23672C3.2185 6.38881 3.25514 6.54091 3.26571 6.69438C3.28051 6.91284 3.36367 6.99027 3.60539 6.98958C6.4088 6.9799 9.21221 6.98335 12.0163 6.98335V6.98197ZM11.6407 12.0902C10.3842 12.0902 9.12765 12.0902 7.87111 12.0902C5.85911 12.0902 3.84641 12.0929 1.83441 12.086C1.64202 12.086 1.57436 12.1275 1.58141 12.3273C1.59692 12.7926 1.58634 13.2578 1.58634 13.7238C1.58634 13.9418 1.70098 14.051 1.93025 14.0515C8.39755 14.0515 14.8655 14.0515 21.3328 14.0515C21.3765 14.0515 21.4216 14.0466 21.4646 14.0522C21.6345 14.0729 21.6923 14.01 21.6887 13.8365C21.6768 13.3456 21.669 12.8534 21.6915 12.3626C21.7028 12.1213 21.6161 12.0846 21.3963 12.0853C18.1446 12.0922 14.8937 12.0902 11.6421 12.0902H11.6407ZM11.6583 10.5084C14.8853 10.5084 18.1115 10.5084 21.3385 10.5084C21.4174 10.5084 21.497 10.5077 21.576 10.5063C21.6345 10.5057 21.6648 10.4828 21.6831 10.4206C21.8318 9.91527 21.5985 9.17002 21.1877 8.83749C20.8825 8.58999 20.5238 8.5499 20.1475 8.5499C14.4765 8.55197 8.80629 8.55128 3.13534 8.55197C3.00355 8.55197 2.87107 8.55681 2.74069 8.57064C2.19382 8.62871 1.74843 9.03244 1.62722 9.562C1.57859 9.77562 1.60678 9.99269 1.58212 10.2049C1.55181 10.4614 1.64977 10.5153 1.90065 10.5146C5.15368 10.5063 8.40671 10.5091 11.6597 10.5091L11.6583 10.5084Z" fill="#A38526"/>
</svg>
