<svg width="39" height="29" viewBox="0 0 39 29" fill="none" xmlns="http://www.w3.org/2000/svg">
<mask id="path-1-inside-1_381_155" fill="white">
<path d="M26.1478 17.4124C25.7144 17.4124 25.2878 17.245 24.9754 16.93C24.5454 16.5034 24.3943 15.8799 24.5824 15.3089L24.6932 14.9708C22.3653 13.2119 10.5847 4.86006 2.44209 9.19841C1.81728 9.52986 1.0749 9.44453 0.547511 8.97854C0.016762 8.50926 -0.144478 7.79386 0.134333 7.15066C1.02451 5.11603 2.88214 2.38569 6.68808 0.954889C11.9452 -1.02723 19.2984 0.0786869 28.5328 4.23983L28.5832 4.11841C28.8284 3.53099 29.3827 3.14704 30.031 3.1175C30.6827 3.08797 31.2672 3.41613 31.5695 3.97729L36.1682 12.5293C36.3966 12.9559 36.4201 13.4547 36.2286 13.901C36.0372 14.3473 35.6576 14.6821 35.1839 14.8199L26.6248 17.3435C26.4669 17.3894 26.3056 17.4124 26.1478 17.4124ZM7.69583 6.3204C10.2757 6.3204 13.1343 6.95704 16.255 8.2336C20.7126 10.0549 24.3674 12.654 25.7346 13.6877C26.2821 14.1012 26.5072 14.81 26.2956 15.4532L26.1948 15.7552L34.6633 13.2578L30.1116 4.79771L30.0746 4.88631C29.9033 5.29652 29.5741 5.61484 29.1542 5.77564C28.7377 5.93644 28.2607 5.92332 27.8542 5.73954C19.033 1.76546 12.1165 0.669385 7.29273 2.48414C4.08472 3.69179 2.49247 5.9791 1.7165 7.71182C3.49687 6.78311 5.49557 6.31712 7.69583 6.31712V6.3204Z"/>
</mask>
<path d="M26.1478 17.4124C25.7144 17.4124 25.2878 17.245 24.9754 16.93C24.5454 16.5034 24.3943 15.8799 24.5824 15.3089L24.6932 14.9708C22.3653 13.2119 10.5847 4.86006 2.44209 9.19841C1.81728 9.52986 1.0749 9.44453 0.547511 8.97854C0.016762 8.50926 -0.144478 7.79386 0.134333 7.15066C1.02451 5.11603 2.88214 2.38569 6.68808 0.954889C11.9452 -1.02723 19.2984 0.0786869 28.5328 4.23983L28.5832 4.11841C28.8284 3.53099 29.3827 3.14704 30.031 3.1175C30.6827 3.08797 31.2672 3.41613 31.5695 3.97729L36.1682 12.5293C36.3966 12.9559 36.4201 13.4547 36.2286 13.901C36.0372 14.3473 35.6576 14.6821 35.1839 14.8199L26.6248 17.3435C26.4669 17.3894 26.3056 17.4124 26.1478 17.4124ZM7.69583 6.3204C10.2757 6.3204 13.1343 6.95704 16.255 8.2336C20.7126 10.0549 24.3674 12.654 25.7346 13.6877C26.2821 14.1012 26.5072 14.81 26.2956 15.4532L26.1948 15.7552L34.6633 13.2578L30.1116 4.79771L30.0746 4.88631C29.9033 5.29652 29.5741 5.61484 29.1542 5.77564C28.7377 5.93644 28.2607 5.92332 27.8542 5.73954C19.033 1.76546 12.1165 0.669385 7.29273 2.48414C4.08472 3.69179 2.49247 5.9791 1.7165 7.71182C3.49687 6.78311 5.49557 6.31712 7.69583 6.31712V6.3204Z" fill="#A3852F"/>
<path d="M24.9754 16.93L27.8157 14.1135L27.8043 14.1019L27.7927 14.0905L24.9754 16.93ZM24.5824 15.3089L28.3815 16.5605L28.3832 16.5554L24.5824 15.3089ZM24.6932 14.9708L28.4941 16.2174L29.3845 13.5021L27.1047 11.7794L24.6932 14.9708ZM2.44209 9.19841L4.31659 12.732L4.32296 12.7286L2.44209 9.19841ZM0.547511 8.97854L-2.10205 11.9752L-2.10105 11.9761L0.547511 8.97854ZM0.134333 7.15066L-3.5303 5.54732L-3.5357 5.5598L0.134333 7.15066ZM6.68808 0.954889L8.09566 4.69905L8.09925 4.69769L6.68808 0.954889ZM28.5328 4.23983L26.8895 7.88667L30.6475 9.58009L32.2273 5.77293L28.5328 4.23983ZM28.5832 4.11841L24.8919 2.57746L24.8886 2.5853L28.5832 4.11841ZM30.031 3.1175L29.8499 -0.878398L29.8489 -0.878355L30.031 3.1175ZM31.5695 3.97729L35.0924 2.08288L35.0909 2.08011L31.5695 3.97729ZM36.1682 12.5293L39.6945 10.6412L39.6911 10.6349L36.1682 12.5293ZM35.1839 14.8199L34.0663 10.9792L34.0595 10.9812L34.0527 10.9832L35.1839 14.8199ZM26.6248 17.3435L27.7424 21.1842L27.7492 21.1822L27.756 21.1802L26.6248 17.3435ZM7.69583 6.3204H3.69583V10.3204H7.69583V6.3204ZM16.255 8.2336L14.7405 11.9358L14.7421 11.9364L16.255 8.2336ZM25.7346 13.6877L23.3222 16.8784L23.324 16.8798L25.7346 13.6877ZM26.2956 15.4532L30.0898 16.7197L30.0925 16.7116L30.0952 16.7034L26.2956 15.4532ZM26.1948 15.7552L22.4006 14.4887L19.9735 21.7601L27.3262 19.5918L26.1948 15.7552ZM34.6633 13.2578L35.7947 17.0945L40.5199 15.701L38.1858 11.3626L34.6633 13.2578ZM30.1116 4.79771L33.6341 2.90252L29.6535 -4.49613L26.4198 3.2581L30.1116 4.79771ZM30.0746 4.88631L33.7657 6.42783L33.7665 6.42593L30.0746 4.88631ZM29.1542 5.77564L27.7237 2.04017L27.7137 2.04405L29.1542 5.77564ZM27.8542 5.73954L29.5021 2.09477L29.4973 2.09256L27.8542 5.73954ZM7.29273 2.48414L5.88426 -1.25968L5.88349 -1.25939L7.29273 2.48414ZM1.7165 7.71182L-1.93414 6.07694L-6.6385 16.5816L3.56649 11.2583L1.7165 7.71182ZM7.69583 6.31712H11.6958V2.31712H7.69583V6.31712ZM26.1478 13.4124C26.7297 13.4124 27.3415 13.6353 27.8157 14.1135L22.1351 19.7465C23.2341 20.8548 24.6992 21.4124 26.1478 21.4124V13.4124ZM27.7927 14.0905C28.4284 14.7212 28.6722 15.6782 28.3815 16.5605L20.7832 14.0573C20.1164 16.0816 20.6625 18.2856 22.1581 19.7695L27.7927 14.0905ZM28.3832 16.5554L28.4941 16.2174L20.8924 13.7243L20.7816 14.0623L28.3832 16.5554ZM27.1047 11.7794C25.8297 10.8161 21.9905 8.05807 17.2815 6.10368C12.7639 4.22875 6.29104 2.61539 0.561214 5.66821L4.32296 12.7286C6.73576 11.4431 10.2245 11.8365 14.2149 13.4926C18.0138 15.0693 21.2289 17.3666 22.2818 18.1622L27.1047 11.7794ZM0.567586 5.66482C1.39917 5.22368 2.46133 5.33181 3.19608 5.98102L-2.10105 11.9761C-0.311528 13.5573 2.23538 13.836 4.31658 12.732L0.567586 5.66482ZM3.19707 5.9819C3.94757 6.64548 4.22277 7.77629 3.80437 8.74152L-3.5357 5.5598C-4.51173 7.81144 -3.91405 10.373 -2.10205 11.9752L3.19707 5.9819ZM3.79894 8.75398C4.3952 7.39116 5.58371 5.64339 8.09566 4.69905L5.2805 -2.78927C0.180566 -0.872005 -2.34617 2.8409 -3.53028 5.54733L3.79894 8.75398ZM8.09925 4.69769C11.8213 3.29435 17.9134 3.84195 26.8895 7.88667L30.1761 0.592981C20.6834 -3.68458 12.0691 -5.34881 5.27691 -2.78792L8.09925 4.69769ZM32.2273 5.77293L32.2777 5.65151L24.8886 2.5853L24.8382 2.70672L32.2273 5.77293ZM32.2744 5.65935C31.9106 6.53094 31.0774 7.07398 30.213 7.11336L29.8489 -0.878355C27.6879 -0.779907 25.7462 0.531042 24.8919 2.57747L32.2744 5.65935ZM30.2121 7.1134C29.3638 7.15185 28.4908 6.69634 28.048 5.87448L35.0909 2.08011C34.0435 0.135921 32.0015 -0.975913 29.8499 -0.878397L30.2121 7.1134ZM28.0465 5.87171L32.6452 14.4237L39.6911 10.6349L35.0924 2.08288L28.0465 5.87171ZM32.6418 14.4174C32.3009 13.7807 32.2606 13.0047 32.5527 12.324L39.9046 15.4781C40.5796 13.9048 40.4923 12.1311 39.6945 10.6412L32.6418 14.4174ZM32.5527 12.324C32.8388 11.6571 33.4065 11.1712 34.0663 10.9792L36.3016 18.6606C37.9087 18.1929 39.2356 17.0376 39.9046 15.4781L32.5527 12.324ZM34.0527 10.9832L25.4936 13.5068L27.756 21.1802L36.3152 18.6566L34.0527 10.9832ZM25.5071 13.5028C25.7051 13.4452 25.92 13.4124 26.1478 13.4124V21.4124C26.6913 21.4124 27.2287 21.3337 27.7424 21.1842L25.5071 13.5028ZM7.69583 10.3204C9.62639 10.3204 11.9636 10.7999 14.7406 11.9358L17.7695 4.53138C14.3051 3.11421 10.925 2.3204 7.69583 2.3204V10.3204ZM14.7421 11.9364C18.7377 13.569 22.0752 15.9355 23.3222 16.8784L28.147 10.4971C26.6596 9.37245 22.6875 6.54083 17.7679 4.53076L14.7421 11.9364ZM23.324 16.8798C22.5298 16.28 22.1635 15.2134 22.496 14.2031L30.0952 16.7034C30.8509 14.4067 30.0344 11.9224 28.1451 10.4957L23.324 16.8798ZM22.5014 14.1868L22.4006 14.4887L29.989 17.0216L30.0898 16.7197L22.5014 14.1868ZM27.3262 19.5918L35.7947 17.0945L33.5319 9.42117L25.0634 11.9185L27.3262 19.5918ZM38.1858 11.3626L33.6341 2.90252L26.5891 6.69289L31.1407 15.153L38.1858 11.3626ZM26.4198 3.2581L26.3828 3.3467L33.7665 6.42593L33.8034 6.33732L26.4198 3.2581ZM26.3836 3.3448C26.6387 2.73391 27.1333 2.26629 27.7237 2.04018L30.5847 9.5111C32.0149 8.9634 33.1679 7.85913 33.7657 6.42783L26.3836 3.3448ZM27.7137 2.04405C28.2945 1.81983 28.9301 1.83615 29.5021 2.09477L26.2063 9.38432C27.5912 10.0105 29.1809 10.0531 30.5948 9.50724L27.7137 2.04405ZM29.4973 2.09256C20.4693 -1.97468 12.2705 -3.66225 5.88426 -1.25968L8.7012 6.22797C11.9625 5.00102 17.5968 5.5056 26.2112 9.38653L29.4973 2.09256ZM5.88349 -1.25939C1.40362 0.427047 -0.858119 3.67423 -1.93414 6.07694L5.36714 9.3467C5.84306 8.28398 6.76582 6.95653 8.70198 6.22767L5.88349 -1.25939ZM3.56649 11.2583C4.72208 10.6555 6.07643 10.3171 7.69583 10.3171V2.31712C4.91471 2.31712 2.27165 2.91072 -0.133485 4.16534L3.56649 11.2583ZM3.69583 6.31712V6.3204H11.6958V6.31712H3.69583Z" fill="#A38526" mask="url(#path-1-inside-1_381_155)"/>
<mask id="path-3-inside-2_381_155" fill="white">
<path d="M26.5205 29C22.0763 29 16.7084 27.648 10.4771 24.9537C10.2688 25.551 9.72128 25.9743 9.07632 26.0334C8.42128 26.0957 7.79311 25.7708 7.47399 25.2097L2.79131 16.9202C2.55616 16.5002 2.51921 16.0079 2.69725 15.5616C2.87193 15.1153 3.23808 14.7707 3.70164 14.6165L12.3784 11.7155C12.9125 11.5383 13.4936 11.6335 13.937 11.978C14.3805 12.3193 14.6089 12.851 14.5518 13.399L14.4409 14.4984C15.4554 15.1973 19.1572 17.698 23.5443 19.4143C28.9324 21.5211 33.3027 21.7114 36.5376 19.9754C37.1758 19.6341 37.9316 19.7228 38.4657 20.2019C38.9898 20.6712 39.1443 21.3898 38.8554 22.0265C37.9686 23.9823 36.1311 26.6109 32.3957 28.0221C30.6657 28.6751 28.704 29 26.5205 29ZM10.4603 23.303C10.6887 23.303 10.9171 23.349 11.1321 23.4409C20.0104 27.287 26.9606 28.3141 31.791 26.4895C34.9453 25.3016 36.5174 23.0996 37.2867 21.4325C28.6838 26.0071 15.919 17.5437 13.4432 15.7979C12.9696 15.4632 12.7109 14.902 12.768 14.3343L12.8789 13.2677L4.27942 16.1556L8.91172 24.3565C9.06624 23.9495 9.37864 23.6181 9.7851 23.4442C10.0001 23.349 10.2319 23.303 10.4603 23.303Z"/>
</mask>
<path d="M26.5205 29C22.0763 29 16.7084 27.648 10.4771 24.9537C10.2688 25.551 9.72128 25.9743 9.07632 26.0334C8.42128 26.0957 7.79311 25.7708 7.47399 25.2097L2.79131 16.9202C2.55616 16.5002 2.51921 16.0079 2.69725 15.5616C2.87193 15.1153 3.23808 14.7707 3.70164 14.6165L12.3784 11.7155C12.9125 11.5383 13.4936 11.6335 13.937 11.978C14.3805 12.3193 14.6089 12.851 14.5518 13.399L14.4409 14.4984C15.4554 15.1973 19.1572 17.698 23.5443 19.4143C28.9324 21.5211 33.3027 21.7114 36.5376 19.9754C37.1758 19.6341 37.9316 19.7228 38.4657 20.2019C38.9898 20.6712 39.1443 21.3898 38.8554 22.0265C37.9686 23.9823 36.1311 26.6109 32.3957 28.0221C30.6657 28.6751 28.704 29 26.5205 29ZM10.4603 23.303C10.6887 23.303 10.9171 23.349 11.1321 23.4409C20.0104 27.287 26.9606 28.3141 31.791 26.4895C34.9453 25.3016 36.5174 23.0996 37.2867 21.4325C28.6838 26.0071 15.919 17.5437 13.4432 15.7979C12.9696 15.4632 12.7109 14.902 12.768 14.3343L12.8789 13.2677L4.27942 16.1556L8.91172 24.3565C9.06624 23.9495 9.37864 23.6181 9.7851 23.4442C10.0001 23.349 10.2319 23.303 10.4603 23.303Z" fill="#A3852F"/>
<path d="M12.687 15.2286L13.5235 15.3107L13.9139 11.3298L13.0775 11.2478L12.687 15.2286ZM10.4771 24.9537L12.0646 21.2822L8.11642 19.5751L6.70014 23.6367L10.4771 24.9537ZM9.07632 26.0334L8.7115 22.05L8.70439 22.0507L8.69728 22.0514L9.07632 26.0334ZM7.47399 25.2097L3.99125 27.1771L3.99691 27.187L7.47399 25.2097ZM2.79131 16.9202L-0.699027 18.8741L-0.695239 18.8808L-0.691425 18.8876L2.79131 16.9202ZM2.69725 15.5616L6.41255 17.0437L6.41737 17.0316L6.42212 17.0195L2.69725 15.5616ZM3.70164 14.6165L4.96446 18.4119L4.96999 18.4101L3.70164 14.6165ZM12.3784 11.7155L11.1188 7.91901L11.11 7.92193L12.3784 11.7155ZM13.937 11.978L11.4826 15.1365L11.4899 15.1422L11.4973 15.1478L13.937 11.978ZM14.5518 13.399L10.5733 12.9844L10.572 12.9977L14.5518 13.399ZM14.4409 14.4984L10.4611 14.0971L10.2238 16.4503L12.1714 17.7922L14.4409 14.4984ZM23.5443 19.4143L22.087 23.1394L22.0876 23.1396L23.5443 19.4143ZM36.5376 19.9754L34.6513 16.4481L34.6461 16.4509L36.5376 19.9754ZM38.4657 20.2019L35.7947 23.1794L35.7973 23.1817L38.4657 20.2019ZM38.8554 22.0265L35.2129 20.3736L35.2124 20.3747L38.8554 22.0265ZM32.3957 28.0221L33.8084 31.7643L33.8093 31.764L32.3957 28.0221ZM11.1321 23.4409L12.7222 19.7705L12.7132 19.7666L12.7042 19.7627L11.1321 23.4409ZM31.791 26.4895L30.3812 22.7462L30.3776 22.7476L31.791 26.4895ZM37.2867 21.4325L40.9186 23.1084L45.8946 12.3248L35.4086 17.9008L37.2867 21.4325ZM13.4432 15.7979L11.1347 19.0645L11.138 19.0668L13.4432 15.7979ZM12.768 14.3343L8.78946 13.9207L8.78813 13.9339L12.768 14.3343ZM12.8789 13.2677L16.8575 13.6813L17.5003 7.49626L11.6055 9.47584L12.8789 13.2677ZM4.27942 16.1556L3.00603 12.3637L-1.58551 13.9056L0.796628 18.1229L4.27942 16.1556ZM8.91172 24.3565L5.42893 26.3237L9.62351 33.7497L12.6512 25.7764L8.91172 24.3565ZM9.7851 23.4442L11.3587 27.1216L11.3815 27.1118L11.4042 27.1018L9.7851 23.4442ZM26.5205 25C22.8318 25 18.0314 23.8621 12.0646 21.2822L8.88963 28.6252C15.3853 31.4338 21.3208 33 26.5205 33V25ZM6.70014 23.6367C7.02117 22.716 7.83426 22.1304 8.7115 22.05L9.44114 30.0167C11.6083 29.8182 13.5165 28.3859 14.254 26.2708L6.70014 23.6367ZM8.69728 22.0514C9.58558 21.9668 10.4795 22.403 10.9511 23.2323L3.99691 27.187C5.10677 29.1387 7.25698 30.2246 9.45536 30.0154L8.69728 22.0514ZM10.9567 23.2423L6.27404 14.9528L-0.691425 18.8876L3.99126 27.1771L10.9567 23.2423ZM6.28164 14.9664C6.6205 15.5717 6.69305 16.3405 6.41255 17.0437L-1.01805 14.0795C-1.65462 15.6753 -1.50817 17.4286 -0.699027 18.8741L6.28164 14.9664ZM6.42212 17.0195C6.15437 17.7036 5.60292 18.1995 4.96446 18.4119L2.43882 10.8211C0.873228 11.342 -0.410518 12.527 -1.02762 14.1038L6.42212 17.0195ZM4.96999 18.4101L13.6467 15.5091L11.11 7.92193L2.43329 10.8229L4.96999 18.4101ZM13.638 15.512C12.9311 15.7465 12.1146 15.6276 11.4826 15.1365L16.3915 8.8196C14.8727 7.63934 12.8939 7.33006 11.1188 7.91902L13.638 15.512ZM11.4973 15.1478C10.8509 14.6503 10.4852 13.8302 10.5733 12.9844L18.5302 13.8136C18.7326 11.8717 17.91 9.98838 16.3768 8.80826L11.4973 15.1478ZM10.572 12.9977L10.4611 14.0971L18.4207 14.8997L18.5316 13.8003L10.572 12.9977ZM12.1714 17.7922C13.2503 18.5355 17.2586 21.2504 22.087 23.1394L25.0016 15.6892C21.0558 14.1455 17.6605 11.8592 16.7104 11.2045L12.1714 17.7922ZM22.0876 23.1396C27.9409 25.4283 33.688 26.0443 38.429 23.5L34.6461 16.4509C32.9174 17.3786 29.9238 17.6139 25.0009 15.6889L22.0876 23.1396ZM38.4238 23.5028C37.597 23.9449 36.5285 23.8377 35.7947 23.1794L41.1367 17.2243C39.3347 15.6079 36.7546 15.3234 34.6514 16.4481L38.4238 23.5028ZM35.7973 23.1817C35.0371 22.501 34.77 21.3495 35.2129 20.3736L42.4979 23.6793C43.5185 21.4301 42.9424 18.8413 41.1342 17.2221L35.7973 23.1817ZM35.2124 20.3747C34.6323 21.6541 33.4661 23.3418 30.9821 24.2802L33.8093 31.764C38.7961 29.8801 41.3049 26.3106 42.4984 23.6783L35.2124 20.3747ZM30.983 24.2798C29.7809 24.7336 28.3104 25 26.5205 25V33C29.0975 33 31.5505 32.6166 33.8084 31.7643L30.983 24.2798ZM10.4603 27.303C10.1515 27.303 9.84493 27.2407 9.56008 27.119L12.7042 19.7627C11.9894 19.4572 11.2259 19.303 10.4603 19.303V27.303ZM9.54211 27.1113C18.6297 31.048 26.8424 32.6346 33.2045 30.2315L30.3776 22.7476C27.0787 23.9937 21.3912 23.5259 12.7222 19.7705L9.54211 27.1113ZM33.2009 30.2328C37.5891 28.5801 39.8355 25.4557 40.9186 23.1084L33.6547 19.7566C33.1993 20.7435 32.3015 22.023 30.3812 22.7462L33.2009 30.2328ZM35.4086 17.9008C32.7172 19.3319 28.8301 18.9183 24.5048 17.2526C20.3749 15.6622 16.8747 13.3232 15.7485 12.529L11.138 19.0668C12.4875 20.0184 16.6076 22.7841 21.6298 24.7181C26.4566 26.577 33.2532 28.1077 39.1647 24.9642L35.4086 17.9008ZM15.7518 12.5313C16.4326 13.0125 16.8379 13.8408 16.748 14.7346L8.78813 13.9339C8.58401 15.9632 9.50657 17.9139 11.1347 19.0645L15.7518 12.5313ZM16.7466 14.7478L16.8575 13.6813L8.90034 12.8542L8.78948 13.9208L16.7466 14.7478ZM11.6055 9.47584L3.00603 12.3637L5.5528 19.9475L14.1523 17.0596L11.6055 9.47584ZM0.796628 18.1229L5.42893 26.3237L12.3945 22.3892L7.76221 14.1883L0.796628 18.1229ZM12.6512 25.7764C12.4267 26.3677 11.9674 26.8611 11.3587 27.1216L8.21149 19.7667C6.78987 20.375 5.70583 21.5313 5.17225 22.9365L12.6512 25.7764ZM11.4042 27.1018C11.0847 27.2432 10.7621 27.303 10.4603 27.303V19.303C9.70168 19.303 8.91545 19.4547 8.16598 19.7865L11.4042 27.1018Z" fill="#A38526" mask="url(#path-3-inside-2_381_155)"/>
</svg>
