<svg width="27" height="27" viewBox="0 0 27 27" fill="none" xmlns="http://www.w3.org/2000/svg">
<path fill-rule="evenodd" clip-rule="evenodd" d="M19.6102 7.10206C20.5231 6.95576 21.1961 7.33982 21.3483 8.10597C21.4627 8.68303 21.3324 9.20413 20.861 9.59724C20.6797 9.74847 20.6445 9.83147 20.8755 10.0003C21.5126 10.4659 21.5675 11.4818 21.0184 12.0849C20.9072 12.207 20.7148 12.3136 20.6967 12.4462C20.6772 12.5882 20.9158 12.6465 21.0243 12.7637C21.5231 13.3031 21.5083 14.2128 20.9829 14.7694C20.8821 14.8762 20.715 14.9704 20.695 15.09C20.6722 15.2249 20.8845 15.2705 20.9835 15.3682C21.475 15.8544 21.5541 16.7616 21.0873 17.2833C20.6675 17.7521 20.2647 18.2523 19.7013 18.5686C19.5894 18.6314 19.6117 18.7168 19.6114 18.8025C19.6091 19.3905 19.5791 19.9804 19.6174 20.5659C19.6747 21.4404 18.9881 22.0772 18.1381 22.0623C16.1268 22.0271 14.1144 22.0529 12.1026 22.0476C11.9337 22.0471 11.8122 22.0898 11.694 22.2146C11.3846 22.5413 11.0631 22.8567 10.7407 23.1709C10.3002 23.6004 9.76943 23.8683 9.15422 23.8053C8.24809 23.7124 7.57171 24.0295 6.97921 24.7102C6.38951 25.3876 5.71394 25.9899 5.08219 26.6314C4.96985 26.7455 4.90677 26.7675 4.77885 26.6405C4.29126 26.1568 4.28575 26.1624 4.77054 25.6776C5.43957 25.0084 6.11308 24.3437 6.77615 23.6687C7.26579 23.1702 7.84351 22.9038 8.54871 22.9349C8.61289 22.9378 8.67803 22.9289 8.74148 22.9363C9.5138 23.026 10.0961 22.7114 10.5523 22.0512C10.2258 22.0512 9.9111 22.0514 9.59659 22.0512C8.67355 22.0504 8.14876 21.5231 8.14318 20.6021C8.1395 19.9875 8.19001 19.3692 8.07657 18.76C7.91909 17.9144 7.54715 17.1672 6.89798 16.6019C6.48715 16.2441 6.30276 15.8538 6.37415 15.316C6.40892 15.0542 6.38621 14.7838 6.37878 14.5176C6.3676 14.1163 6.51677 13.7856 6.79659 13.5061C7.2841 13.0192 7.77477 12.5354 8.2561 12.0424C8.51923 11.773 8.56885 11.381 8.40071 11.0782C8.23052 10.7716 7.89828 10.6232 7.53274 10.6894C7.36328 10.7201 7.22683 10.8095 7.10795 10.9283C6.33445 11.7009 5.56286 12.4752 4.78752 13.2459C4.64453 13.3881 4.61166 13.556 4.61218 13.7474C4.61541 14.9325 4.60843 16.1176 4.61593 17.3027C4.61997 17.9444 4.39743 18.4866 3.94851 18.9371C2.85925 20.0305 1.76476 21.1187 0.678657 22.2153C0.552056 22.343 0.48383 22.3466 0.355097 22.2167C-0.115282 21.742 -0.120575 21.7472 0.352523 21.2739C1.32026 20.3058 2.28418 19.3339 3.25802 18.372C3.5857 18.0483 3.73825 17.6718 3.73582 17.2143C3.72957 16.0293 3.73928 14.8441 3.73075 13.6591C3.72774 13.2368 3.87632 12.8947 4.17187 12.6011C4.92794 11.8501 5.68027 11.0954 6.43282 10.3408C6.60948 10.1637 6.79586 9.98903 7.03715 9.92124C7.2483 9.86184 7.26506 9.73641 7.26476 9.55629C7.26101 6.8554 7.26197 4.15444 7.26226 1.45355C7.26234 0.528892 7.78881 0.000285362 8.70965 0.000211843C11.8699 -8.71614e-06 15.0301 -0.000155235 18.1904 0.000285883C19.073 0.000432922 19.6093 0.539478 19.6097 1.42649C19.6103 3.21794 19.6099 5.0094 19.6099 6.80078C19.6102 6.89995 19.6102 6.99898 19.6102 7.10206ZM18.5833 10.617C17.6393 10.0953 17.6357 8.7911 18.3323 8.22037C18.4102 8.15663 18.4711 8.0723 18.5487 8.00841C18.6861 7.89526 18.7349 7.7616 18.7343 7.57906C18.7274 5.54903 18.7304 3.51901 18.7297 1.48906C18.7296 1.02956 18.5794 0.876859 18.1176 0.882373C17.8528 0.885461 17.5201 0.773343 17.3428 0.927661C17.1831 1.06676 17.1912 1.39797 17.1237 1.64404C16.9567 2.25249 16.4585 2.64265 15.8333 2.64368C14.2352 2.64626 12.6368 2.64611 11.0385 2.64368C10.4265 2.64265 9.9225 2.25829 9.75524 1.67021C9.70267 1.48538 9.65709 1.29798 9.62033 1.1094C9.5882 0.944866 9.52505 0.85642 9.3328 0.875609C9.12363 0.896562 8.91072 0.87833 8.6995 0.88083C8.31036 0.885461 8.14369 1.04669 8.14347 1.43399C8.14178 4.16201 8.14347 6.89018 8.13987 9.6182C8.13972 9.76458 8.17427 9.83714 8.32308 9.90007C9.47778 10.3885 9.75701 11.7611 8.89146 12.6696C8.60642 12.9687 8.33573 13.2914 8.01025 13.5402C7.38828 14.0156 7.1439 14.6078 7.2505 15.3797C7.27947 15.5895 7.31027 15.7533 7.47238 15.9047C8.24618 16.6274 8.73964 17.5118 8.94594 18.5524C9.08114 19.2347 9.00755 19.9259 9.02409 20.6131C9.0335 21.0022 9.1912 21.17 9.57747 21.1703C12.4433 21.172 15.3092 21.172 18.175 21.1703C18.562 21.1701 18.727 21.0027 18.7291 20.6146C18.7324 20.0176 18.724 19.4204 18.7338 18.8235C18.7365 18.6619 18.6826 18.5816 18.538 18.5138C18.2809 18.3933 18.0961 18.1871 17.9727 17.9319C17.7121 17.3926 17.8161 16.7023 18.2326 16.2681C18.3449 16.151 18.4897 16.065 18.646 15.9443C18.0675 15.6025 17.8439 15.1761 17.8398 14.5956C17.8356 14.0027 18.194 13.6373 18.5817 13.2623C18.0749 12.9588 17.8439 12.5367 17.8396 11.9551C17.8354 11.3622 18.1875 10.9939 18.5833 10.617ZM13.4395 0.880316C12.5316 0.880316 11.6239 0.878476 10.7161 0.883917C10.6449 0.884284 10.5237 0.814148 10.5076 0.975009C10.4624 1.42789 10.7558 1.76402 11.205 1.76424C12.6446 1.76498 14.0842 1.76453 15.5239 1.76453C16.1325 1.76446 16.176 1.72226 16.3316 1.14256C16.3859 0.940601 16.3675 0.872154 16.1352 0.875389C15.2368 0.887667 14.338 0.880316 13.4395 0.880316ZM20.4944 8.4771C20.4991 8.26573 20.4387 8.10046 20.2577 8.00047C20.0979 7.9121 19.9284 7.91034 19.7966 8.03605C19.4651 8.35211 19.1337 8.67038 18.828 9.0107C18.6481 9.2109 18.6988 9.5746 18.8843 9.73884C19.0775 9.90977 19.3099 9.88404 19.5413 9.65775C19.7969 9.40771 20.0464 9.15112 20.3012 8.9002C20.4246 8.77875 20.5029 8.64083 20.4944 8.4771ZM20.495 11.1339C20.4983 10.9125 20.439 10.7467 20.2577 10.6468C20.0978 10.5585 19.9284 10.5567 19.7966 10.6824C19.4651 10.9985 19.1337 11.3168 18.8279 11.6571C18.6481 11.8574 18.6989 12.2211 18.8845 12.3853C19.0776 12.5561 19.3099 12.5305 19.5413 12.3041C19.7971 12.054 20.0464 11.7975 20.3013 11.5465C20.4246 11.4251 20.5029 11.2872 20.495 11.1339ZM20.4959 13.7711C20.4932 13.5375 20.4252 13.3775 20.2397 13.284C20.0855 13.2064 19.925 13.2082 19.8025 13.3247C19.4705 13.6402 19.1384 13.9576 18.8321 14.2976C18.6423 14.5084 18.698 14.8812 18.9006 15.0439C19.0998 15.2041 19.3182 15.1705 19.556 14.9364C19.8109 14.6855 20.0613 14.4301 20.3156 14.1783C20.4396 14.0555 20.5064 13.9119 20.4959 13.7711ZM20.4953 16.4066C20.4944 16.1924 20.4312 16.0369 20.2622 15.9418C20.1039 15.8527 19.9331 15.8466 19.8007 15.9723C19.4686 16.2877 19.1376 16.6062 18.8308 16.9456C18.6499 17.1457 18.6966 17.5076 18.8809 17.6745C19.078 17.853 19.3126 17.8226 19.5575 17.5813C19.8058 17.3368 20.0488 17.0868 20.2979 16.843C20.4294 16.7142 20.5082 16.5676 20.4953 16.4066Z" fill="#A3852F"/>
<path fill-rule="evenodd" clip-rule="evenodd" d="M0.202414 13.4893C0.202928 11.5727 0.5073 9.98139 1.09171 8.44042C1.16111 8.25743 1.21618 8.20243 1.41835 8.29176C1.99578 8.5468 1.99747 8.5346 1.7936 9.13018C0.81917 11.9774 0.849681 14.8129 1.91028 17.631C1.99622 17.8594 1.97137 17.953 1.73 18.0402C1.17273 18.2417 1.17581 18.2573 0.975178 17.6934C0.460615 16.2475 0.199693 14.7574 0.202414 13.4893Z" fill="#A3852F"/>
<path fill-rule="evenodd" clip-rule="evenodd" d="M26.6684 13.2245C26.6721 14.884 26.3624 16.4849 25.7762 18.0357C25.7096 18.212 25.6441 18.2477 25.4644 18.1705C24.8765 17.9182 24.8752 17.9266 25.077 17.3367C26.0519 14.488 26.0227 11.6507 24.9618 8.83109C24.8735 8.59649 24.9127 8.50886 25.1474 8.42299C25.7 8.2211 25.6951 8.20743 25.9001 8.77625C26.4046 10.1747 26.6667 11.6945 26.6684 13.2245Z" fill="#A3852F"/>
<path fill-rule="evenodd" clip-rule="evenodd" d="M24.4646 13.0377C24.4652 14.5863 24.2196 15.8935 23.7469 17.1605C23.6882 17.3182 23.6293 17.3915 23.4607 17.2917C23.274 17.1809 22.9738 17.1941 22.8919 17.0066C22.8167 16.8348 22.9994 16.6177 23.0628 16.4189C23.7867 14.1563 23.7523 11.9091 22.9258 9.6801C22.8523 9.48196 22.8734 9.39815 23.0809 9.31963C23.6868 9.09032 23.6841 9.0801 23.8867 9.69377C24.2663 10.8429 24.4703 12.0208 24.4646 13.0377Z" fill="#A3852F"/>
<path fill-rule="evenodd" clip-rule="evenodd" d="M2.46891 12.0274C2.56588 11.1098 2.79541 10.1611 3.14728 9.24104C3.19359 9.12003 3.24248 9.10143 3.36842 9.14855C4.02606 9.39455 4.02613 9.3894 3.80748 10.0456C3.57501 10.7432 3.42165 11.4591 3.35196 12.1904C3.3349 12.3697 3.27542 12.4064 3.11302 12.3756C2.97877 12.3501 2.83923 12.3519 2.70204 12.3428C2.45847 12.3268 2.45847 12.3272 2.46891 12.0274Z" fill="#A3852F"/>
<path fill-rule="evenodd" clip-rule="evenodd" d="M13.4428 15.4354C12.3499 15.4354 11.2568 15.43 10.1639 15.4402C9.96079 15.442 9.8994 15.394 9.90344 15.1841C9.91734 14.4679 9.91499 13.7512 9.90462 13.035C9.9019 12.8487 9.94256 12.7548 10.143 12.791C10.3207 12.8231 10.3544 12.7365 10.3532 12.5749C10.3461 11.6932 10.3455 10.8115 10.3535 9.92976C10.355 9.75471 10.3128 9.6709 10.1272 9.70119C9.96925 9.72692 9.8983 9.67833 9.90447 9.4971C9.91837 9.08429 9.91322 8.67052 9.90631 8.25741C9.90418 8.12949 9.94565 8.06406 10.0666 8.01281C11.1466 7.55493 12.224 7.09117 13.3008 6.62564C13.4024 6.58168 13.4899 6.58962 13.5875 6.6316C14.656 7.09161 15.7246 7.55104 16.7955 8.00517C16.9243 8.05972 16.9703 8.13177 16.9671 8.27197C16.9577 8.67589 16.9572 9.08025 16.9668 9.48416C16.9707 9.64377 16.9384 9.73435 16.7583 9.70178C16.56 9.66597 16.5162 9.75604 16.5184 9.94439C16.5282 10.8168 16.5268 11.6895 16.5191 12.562C16.5176 12.7351 16.557 12.8245 16.7442 12.7911C16.9338 12.7575 16.969 12.8513 16.9671 13.0221C16.9591 13.7476 16.9564 14.4733 16.9686 15.1988C16.9719 15.3963 16.9112 15.4414 16.7218 15.4398C15.6289 15.4308 14.5359 15.4354 13.4428 15.4354ZM13.4355 13.6711C12.7559 13.6711 12.0763 13.6711 11.3967 13.6711C10.7857 13.6711 10.795 13.6713 10.7838 14.2861C10.7799 14.4987 10.8332 14.5623 11.054 14.5606C12.5141 14.5501 13.9745 14.5552 15.4347 14.5552C16.0953 14.5552 16.0889 14.5553 16.0881 13.8988C16.0878 13.7222 16.0438 13.6646 15.8602 13.6669C15.0519 13.6767 14.2437 13.6712 13.4355 13.6711ZM13.4482 8.82145C14.2556 8.82145 15.0631 8.82293 15.8703 8.81888C15.9409 8.81852 16.0515 8.87027 16.0756 8.7536C16.0989 8.64008 15.9827 8.63288 15.9143 8.60325C15.1411 8.26917 14.3656 7.94076 13.5935 7.60426C13.4824 7.55581 13.3922 7.55824 13.2828 7.60581C12.5108 7.94128 11.7358 8.26969 10.9633 8.60413C10.8957 8.63339 10.7777 8.63501 10.797 8.74999C10.8172 8.87138 10.929 8.81844 10.9986 8.81874C11.8151 8.82285 12.6317 8.82145 13.4482 8.82145ZM11.23 11.2195C11.23 11.5225 11.23 11.8255 11.23 12.1285C11.23 12.8072 11.23 12.798 11.9002 12.7966C12.0991 12.7962 12.1184 12.716 12.1169 12.5538C12.1104 11.8193 12.1142 11.0848 12.1142 10.3502C12.1142 9.67818 12.1143 9.68318 11.4302 9.69766C11.2776 9.7009 11.223 9.7378 11.2266 9.89749C11.2366 10.3379 11.2301 10.7788 11.23 11.2195ZM12.9943 11.2247C12.9943 11.5276 12.9943 11.8306 12.9943 12.1336C12.9943 12.8091 12.9942 12.8021 13.6696 12.7958C13.8438 12.7942 13.8838 12.741 13.882 12.5762C13.8739 11.8418 13.8784 11.1073 13.8784 10.3726C13.8784 9.67524 13.8786 9.68097 13.1893 9.69722C13.0298 9.70104 12.9883 9.75008 12.9913 9.90249C13 10.3431 12.9943 10.7839 12.9943 11.2247ZM15.6427 11.2741C15.6427 10.962 15.6427 10.6498 15.6427 10.3376C15.6427 9.69406 15.6426 9.70156 15.0012 9.69693C14.8129 9.69553 14.7504 9.73942 14.7537 9.93763C14.7657 10.6719 14.7584 11.4066 14.7584 12.1411C14.7584 12.8022 14.7584 12.796 15.4137 12.7951C15.5883 12.7948 15.6528 12.7546 15.6469 12.5685C15.6333 12.1374 15.6426 11.7056 15.6427 11.2741Z" fill="#A3852F"/>
</svg>
