<svg width="28" height="27" viewBox="0 0 28 27" fill="none" xmlns="http://www.w3.org/2000/svg">
<path d="M27.3749 9.70139C27.4083 8.28561 27.2413 6.86983 26.8807 5.5008C26.3865 3.4172 24.924 1.69422 22.9406 0.872803C21.6383 0.345225 20.2426 0.0647409 18.8335 0.0447063C15.9952 -0.0354321 13.1503 0.0179935 10.3121 0.0113153C8.84956 -0.0220757 7.38703 0.158236 5.97793 0.558928C3.98115 1.08651 2.33831 2.52232 1.54361 4.43896C1.02271 5.75457 0.735546 7.15699 0.708833 8.57277C0.642051 10.1622 0.688799 11.7516 0.675442 13.0672V16.9205C0.642051 18.3764 0.809006 19.8255 1.16963 21.2346C1.66382 23.2982 3.11299 25.0078 5.06302 25.8292C6.39198 26.3769 7.81444 26.664 9.25025 26.6774C12.0685 26.7575 14.8933 26.7041 17.7182 26.7108C19.1273 26.7442 20.5297 26.5772 21.8854 26.2166C23.9623 25.7224 25.6719 24.2665 26.4934 22.2965C27.0343 20.9742 27.3148 19.5651 27.3348 18.136C27.415 15.3244 27.3615 12.5129 27.3682 9.70139M25.485 17.8755C25.485 18.9039 25.3314 19.9257 25.0375 20.9141C24.5634 22.6571 23.181 24.0061 21.4179 24.4268C20.483 24.6873 19.5146 24.8208 18.5463 24.8275C15.5278 24.8475 12.5159 24.8475 9.49734 24.8275C8.44219 24.8275 7.38703 24.6672 6.37863 24.3467C4.60222 23.8258 3.26658 22.3633 2.90596 20.5468C2.68558 19.6653 2.57205 18.757 2.55869 17.8421C2.54534 16.3462 2.55869 14.857 2.55869 13.361C2.55869 11.8651 2.53866 10.3358 2.55869 8.81986C2.56537 7.81813 2.71229 6.82976 2.9861 5.8681C3.47361 4.01824 4.96953 2.60914 6.8461 2.24183C7.90126 1.99474 8.98312 1.87453 10.0717 1.88789C12.8965 1.88789 15.7147 1.88121 18.5396 1.90125C19.528 1.90125 20.5164 2.04817 21.4647 2.31529C23.3279 2.78945 24.757 4.29204 25.131 6.18197C25.3581 7.07685 25.4716 7.99177 25.4783 8.91336C25.4916 11.8985 25.4983 14.8903 25.4783 17.8755" fill="#A38526"/>
<path d="M20.9438 17.2277C18.8134 17.221 16.6764 17.221 14.5461 17.2277C14.3591 17.2277 14.1788 17.2745 14.0185 17.368C13.6579 17.5817 13.4775 18.0158 13.5911 18.4231C13.718 18.8438 14.1187 19.131 14.5594 19.111C15.6279 19.111 16.6898 19.111 17.7583 19.111H20.8703C21.084 19.1243 21.2977 19.0709 21.4847 18.9707C21.8387 18.7637 22.0123 18.3497 21.9188 17.949C21.8053 17.5082 21.3979 17.2077 20.9438 17.2277Z" fill="#A38526"/>
<path d="M14.5928 10.4093H20.9037C21.1374 10.4293 21.3712 10.3625 21.5648 10.229C21.8921 9.99522 22.0256 9.5745 21.8987 9.19384C21.7652 8.77979 21.3712 8.51266 20.9438 8.53937C18.8334 8.53937 16.7165 8.53937 14.6061 8.53937C14.0852 8.49263 13.6244 8.86661 13.5777 9.38751C13.5777 9.41422 13.5777 9.44761 13.5777 9.47432C13.5777 9.98854 13.9917 10.4093 14.506 10.4093C14.5394 10.4093 14.5728 10.4093 14.6128 10.4093" fill="#A38526"/>
<path d="M7.24678 11.017C7.57402 11.4177 8.1617 11.4778 8.56239 11.1506C8.60246 11.1172 8.64253 11.0771 8.6826 11.037C9.58415 10.1488 10.4857 9.24728 11.3739 8.34573C11.7679 8.01182 11.8214 7.41746 11.4874 7.02344C11.1535 6.62943 10.5592 6.576 10.1652 6.90991C10.1184 6.94998 10.0783 6.99005 10.0383 7.0368C9.45727 7.6178 8.86959 8.19881 8.28858 8.77981C8.09269 8.9757 7.89012 8.98461 7.68087 8.80652C7.40706 8.54607 6.99969 8.47929 6.65242 8.63957C6.31184 8.77981 6.09146 9.1204 6.11149 9.49438C6.11149 9.74815 6.21166 9.99524 6.39865 10.1689C6.67914 10.4494 6.95962 10.7298 7.24011 11.0103" fill="#A38526"/>
<path d="M10.0583 15.7051C9.41722 16.3328 8.77611 16.974 8.14836 17.6217C8.00144 17.7687 7.91462 17.7753 7.78774 17.6217C7.63414 17.408 7.38704 17.2745 7.11992 17.2678C6.7259 17.221 6.35192 17.4414 6.19832 17.802C6.02469 18.1426 6.09147 18.5567 6.3586 18.8238C6.6658 19.151 6.97967 19.4582 7.30023 19.7721C7.63414 20.1394 8.20846 20.1661 8.57576 19.8322C8.5958 19.8189 8.60915 19.7988 8.62919 19.7788C9.57081 18.8572 10.4991 17.9223 11.4274 16.9873C11.6678 16.7602 11.7613 16.4197 11.6744 16.0991C11.5476 15.5982 11.04 15.291 10.5392 15.4179C10.3522 15.4647 10.1919 15.5649 10.065 15.7051" fill="#A38526"/>
</svg>
