<svg width="27" height="28" viewBox="0 0 27 28" fill="none" xmlns="http://www.w3.org/2000/svg">
<path fill-rule="evenodd" clip-rule="evenodd" d="M17.3223 9.3876C17.3223 10.7893 17.3163 12.1911 17.3257 13.5928C17.3287 14.0559 17.1344 14.3772 16.7284 14.5804C14.2101 15.8407 11.6911 17.0995 9.1733 18.3608C8.82421 18.5357 8.49042 18.5229 8.14117 18.3475C5.6415 17.0915 3.13936 15.8404 0.635927 14.5919C0.217367 14.3832 0.0112914 14.0687 0.012333 13.592C0.0189832 10.7685 0.018903 7.945 0.0124131 5.12156C0.0113715 4.64515 0.217607 4.33131 0.636728 4.12243C3.14032 2.87428 5.64246 1.62317 8.14181 0.366604C8.5034 0.184806 8.84264 0.187289 9.20095 0.367164C11.6998 1.62164 14.2 2.87332 16.702 4.12147C17.1339 4.33684 17.3305 4.66582 17.3264 5.1524C17.3146 6.56408 17.3223 7.97584 17.3223 9.3876ZM1.95026 6.64172C1.94569 6.68875 1.93728 6.73539 1.93728 6.78202C1.93656 8.81456 1.93952 10.847 1.93167 12.8796C1.93103 13.0563 2.01099 13.1224 2.14584 13.1897C3.91678 14.0717 5.68565 14.9576 7.45628 15.8401C7.52486 15.8743 7.5884 15.9353 7.68174 15.9154C7.73486 15.8245 7.70682 15.7235 7.7069 15.6279C7.7089 13.6755 7.7045 11.7231 7.71387 9.77067C7.71499 9.54809 7.64344 9.43944 7.4457 9.34169C5.70728 8.4827 3.97495 7.61144 2.23998 6.74556C2.15321 6.70237 2.07429 6.63211 1.95026 6.64172ZM15.4013 6.61376C15.3172 6.64677 15.2709 6.66095 15.2282 6.68226C13.4227 7.58444 11.6193 8.49079 9.80964 9.38464C9.63152 9.47261 9.62808 9.58927 9.62824 9.74375C9.63016 11.7162 9.62904 13.6886 9.63096 15.6611C9.63104 15.7466 9.60372 15.8381 9.65925 15.9214C9.76877 15.9274 9.84785 15.8581 9.93479 15.8147C11.5357 15.0162 13.1237 14.19 14.7431 13.431C15.2627 13.1875 15.4295 12.9066 15.4171 12.3378C15.3755 10.447 15.4013 8.55465 15.4013 6.61376ZM14.1766 5.03655C14.0901 4.98383 14.0578 4.96075 14.0227 4.9432C12.2986 4.0806 10.5727 3.22193 8.85289 2.35116C8.68752 2.26743 8.57615 2.31382 8.43978 2.38209C6.779 3.2136 5.11686 4.04231 3.45648 4.8747C3.37275 4.91668 3.26683 4.93479 3.20818 5.04768C3.25257 5.07509 3.29087 5.10313 3.33277 5.12404C5.05629 5.98648 6.78125 6.84603 8.50196 7.71408C8.65227 7.78996 8.75771 7.75174 8.88799 7.68636C10.4593 6.89779 12.0327 6.11347 13.6053 5.32763C13.7815 5.23958 13.9563 5.14888 14.1766 5.03655Z" fill="#A38526"/>
<path fill-rule="evenodd" clip-rule="evenodd" d="M17.3244 24.5873C17.3244 24.4615 17.3244 24.3543 17.3244 24.2473C17.3244 22.3344 17.3163 20.4214 17.3329 18.5087C17.3354 18.2102 17.2466 18.0542 16.977 17.9493C16.5609 17.7875 16.3028 17.4916 16.3017 17.0198C16.3 16.3415 16.9566 15.8812 17.5949 16.1123C17.6136 16.1191 17.6333 16.1266 17.6486 16.1389C18.1136 16.5117 18.5324 16.3477 19.006 16.1002C20.4854 15.327 21.9884 14.5987 23.4819 13.8523C23.5702 13.8082 23.6556 13.7588 23.745 13.7104C23.7064 13.5863 23.5932 13.5774 23.5109 13.5359C22.2526 12.9019 20.9913 12.2738 19.7334 11.6386C19.318 11.4289 19.1253 11.0415 19.1935 10.5971C19.2551 10.1948 19.5923 9.87667 20.0302 9.8072C20.2371 9.77443 20.4276 9.831 20.6088 9.92162C22.5034 10.8679 24.3956 11.8188 26.2923 12.7604C26.7467 12.986 26.9456 13.3257 26.9436 13.8374C26.9325 16.6215 26.9325 19.4057 26.9436 22.1899C26.9456 22.7024 26.7424 23.0397 26.2893 23.2652C23.8033 24.5023 21.3196 25.7441 18.8386 26.9913C18.4577 27.1828 18.1076 27.1787 17.7254 26.9863C15.2441 25.7365 12.7587 24.4949 10.2713 23.2575C9.82842 23.0371 9.61321 22.709 9.62763 22.208C9.6447 21.6177 9.62859 21.0264 9.6326 20.4355C9.63637 19.87 10.0415 19.4576 10.5865 19.4557C11.1327 19.4538 11.545 19.8655 11.5516 20.4255C11.556 20.796 11.5568 21.1667 11.5503 21.5371C11.548 21.6705 11.5791 21.752 11.7117 21.8178C13.5375 22.7251 15.3598 23.6396 17.1834 24.5511C17.2171 24.5679 17.2577 24.5707 17.3244 24.5873ZM19.2454 24.5975C19.3233 24.5729 19.3626 24.5659 19.3967 24.549C21.2113 23.6416 23.024 22.7301 24.8427 21.8305C25.0229 21.7413 25.0183 21.6189 25.0181 21.4667C25.0168 19.4943 25.0177 17.5218 25.0155 15.5493C25.0154 15.4659 25.0483 15.3732 24.98 15.2928C24.9483 15.2998 24.9172 15.3006 24.8919 15.3131C23.0595 16.2285 21.2285 17.1466 19.3938 18.0572C19.2554 18.1258 19.2435 18.2182 19.2441 18.3447C19.247 19.0155 19.2455 19.6864 19.2455 20.3573C19.2454 21.7584 19.2454 23.1595 19.2454 24.5975Z" fill="#A38526"/>
<path fill-rule="evenodd" clip-rule="evenodd" d="M1.91097 21.7514C1.78822 21.8983 1.71651 22.0067 1.62333 22.0918C1.2381 22.4434 0.660977 22.4278 0.294016 22.0635C-0.0641321 21.7079 -0.110282 21.126 0.239853 20.7597C0.903989 20.0648 1.58463 19.3849 2.27841 18.7196C2.64609 18.3672 3.19934 18.398 3.58064 18.7701C4.23292 19.4065 4.87847 20.0504 5.5136 20.7039C5.90396 21.1054 5.88272 21.7004 5.49213 22.0758C5.11138 22.4418 4.54139 22.4366 4.13958 22.0631C4.08205 22.0096 4.02596 21.9546 3.92188 21.8552C4.11995 23.1213 4.73481 24.0385 5.76703 24.6748C6.38637 25.0567 7.0731 25.2187 7.79701 25.224C8.39793 25.2285 8.99885 25.2223 9.59977 25.2257C10.1774 25.229 10.5963 25.6441 10.5906 26.2003C10.5852 26.7393 10.1664 27.1525 9.60001 27.1428C8.67996 27.1269 7.75887 27.1976 6.83947 27.0875C4.47032 26.8035 2.32833 24.7013 1.99967 22.3254C1.97715 22.1615 1.94935 21.9982 1.91097 21.7514Z" fill="#A38526"/>
<path fill-rule="evenodd" clip-rule="evenodd" d="M22.9779 5.47963C22.9793 4.17908 21.895 2.84335 20.5725 2.37952C20.1146 2.21896 19.6435 2.14549 19.1601 2.14461C18.5593 2.14349 17.9584 2.14685 17.3575 2.14348C16.7755 2.1402 16.3592 1.73077 16.3631 1.17264C16.3669 0.629489 16.7811 0.216699 17.3482 0.226554C18.2681 0.242418 19.1892 0.169266 20.1082 0.281118C22.4888 0.570841 24.6203 2.65859 24.9528 5.03639C24.9763 5.20416 25.0019 5.37162 25.0321 5.5781C25.1571 5.46721 25.2638 5.36818 25.3748 5.27443C25.7952 4.92037 26.3632 4.94273 26.728 5.32587C27.0938 5.7103 27.0946 6.27949 26.7064 6.6769C26.0766 7.32148 25.4388 7.95846 24.795 8.5891C24.3784 8.99725 23.8218 8.99396 23.4009 8.58165C22.7714 7.96511 22.1495 7.34055 21.5308 6.71303C21.1221 6.2984 21.1091 5.70149 21.4868 5.31425C21.8747 4.91661 22.4672 4.92983 22.9037 5.34919C22.9382 5.38244 22.9537 5.43564 22.9779 5.47963Z" fill="#A38526"/>
</svg>
