<svg width="27" height="20" viewBox="0 0 27 20" fill="none" xmlns="http://www.w3.org/2000/svg">
<g clip-path="url(#clip0_1_86)">
<path d="M18.1021 12.0084C17.8021 12.0084 17.5067 11.893 17.2905 11.6757C16.9928 11.3815 16.8881 10.9515 17.0184 10.5577L17.0951 10.3246C15.4835 9.11152 7.32767 3.35164 1.69046 6.34361C1.2579 6.57219 0.743951 6.51335 0.378835 6.19197C0.0113932 5.86833 -0.100235 5.37495 0.0927886 4.93136C0.709068 3.52817 1.99511 1.64518 4.63 0.658421C8.26953 -0.708558 13.3602 0.0541437 19.7533 2.9239L19.7881 2.84016C19.9579 2.43504 20.3416 2.17025 20.7905 2.14988C21.2416 2.12951 21.6463 2.35583 21.8556 2.74284L25.0393 8.64077C25.1974 8.93499 25.2137 9.27899 25.0812 9.58679C24.9486 9.89459 24.6858 10.1254 24.3579 10.2205L18.4323 11.9609C18.323 11.9926 18.2114 12.0084 18.1021 12.0084ZM5.32767 4.35877C7.11372 4.35877 9.09279 4.79783 11.2533 5.67822C14.3393 6.93431 16.8695 8.72677 17.816 9.43968C18.1951 9.72485 18.3509 10.2137 18.2044 10.6573L18.1346 10.8655L23.9974 9.1432L20.8463 3.30864L20.8207 3.36975C20.7021 3.65265 20.4742 3.87218 20.1835 3.98308C19.8951 4.09398 19.5649 4.08492 19.2835 3.95818C13.1765 1.21743 8.38814 0.461522 5.0486 1.71308C2.82767 2.54594 1.72535 4.1234 1.18814 5.31837C2.4207 4.67788 3.80442 4.35651 5.32767 4.35651V4.35877Z" fill="#A3852F"/>
<path d="M18.3605 20C15.2837 20 11.5674 19.0676 7.25349 17.2095C7.1093 17.6214 6.73023 17.9133 6.28372 17.9541C5.83023 17.9971 5.39535 17.773 5.17442 17.386L1.93256 11.6691C1.76976 11.3794 1.74418 11.0399 1.86744 10.7321C1.98837 10.4243 2.24186 10.1867 2.56279 10.0803L8.56976 8.07966C8.93953 7.95745 9.34186 8.02308 9.64883 8.26072C9.95581 8.49609 10.114 8.86273 10.0744 9.24069L9.99767 9.99886C10.7 10.4809 13.2628 12.2055 16.3 13.3892C20.0302 14.8421 23.0558 14.9734 25.2953 13.7762C25.7372 13.5408 26.2605 13.6019 26.6302 13.9323C26.993 14.256 27.1 14.7516 26.9 15.1907C26.286 16.5395 25.014 18.3524 22.4279 19.3256C21.2302 19.7759 19.8721 20 18.3605 20ZM7.24186 16.0711C7.4 16.0711 7.55814 16.1027 7.70697 16.1661C13.8535 18.8186 18.6651 19.527 22.0093 18.2686C24.193 17.4494 25.2814 15.9307 25.814 14.781C19.8581 17.9359 11.0209 12.0991 9.30697 10.8951C8.97907 10.6642 8.8 10.2772 8.83953 9.8857L8.91628 9.15016L2.96279 11.1418L6.16976 16.7976C6.27674 16.5169 6.49302 16.2883 6.77442 16.1684C6.92325 16.1027 7.08372 16.0711 7.24186 16.0711Z" fill="#A3852F"/>
</g>
<defs>
<clipPath id="clip0_1_86">
<rect width="27" height="20" fill="white"/>
</clipPath>
</defs>
</svg>
