<svg width="84" height="38" viewBox="0 0 84 38" fill="none" xmlns="http://www.w3.org/2000/svg">
<path d="M22.0018 22.2834L24.6745 15.5581H26.3984L22.0463 26.221L17.3868 15.5581H19.1419L22.0018 22.2834Z" fill="white"/>
<path d="M29.9487 15.5581H28.3584V25.7646H29.9487V15.5581Z" fill="white"/>
<path d="M40.0695 24.9279C39.8111 25.0934 39.5349 25.2456 39.2498 25.3709C38.6217 25.6304 37.9491 25.7691 37.2631 25.7691C36.5771 25.7691 35.9089 25.6349 35.2897 25.3709C34.6705 25.1069 34.1404 24.7355 33.6727 24.2701C33.205 23.8003 32.8352 23.2633 32.5769 22.6459C32.3185 22.0284 32.1804 21.3527 32.1804 20.6636C32.1804 19.9746 32.3185 19.3034 32.5769 18.668C32.8352 18.0639 33.205 17.5135 33.6727 17.0437C34.136 16.5739 34.6705 16.2025 35.2897 15.9564C35.9044 15.679 36.5771 15.5582 37.2631 15.5582C37.9491 15.5582 38.6173 15.6835 39.2498 15.9564C39.3166 15.9833 39.4013 16.0235 39.4681 16.0504V17.9342C38.8489 17.4241 38.0827 17.1511 37.2631 17.1511C36.3321 17.1511 35.4545 17.5091 34.7952 18.1847C34.136 18.847 33.7707 19.724 33.7707 20.6592C33.7707 21.5943 34.1404 22.4758 34.7952 23.1336C35.4545 23.7958 36.3276 24.1672 37.2631 24.1672C38.1985 24.1672 39.0716 23.7958 39.7265 23.1336C39.8512 23.0083 39.9581 22.8875 40.0695 22.7488V24.9234V24.9279Z" fill="white"/>
<path d="M48.7514 16.99H45.9584V25.7646H44.3548V16.99H41.5618V15.5582H48.7514V16.99Z" fill="white"/>
<path d="M52.6803 25.3664C52.0656 25.1024 51.5311 24.731 51.0633 24.2656C50.5956 23.7958 50.2259 23.2589 49.9675 22.6414C49.7047 22.0239 49.571 21.3482 49.571 20.6591C49.571 19.9701 49.7091 19.2989 49.9675 18.6635C50.2259 18.0594 50.5956 17.5225 51.0633 17.0392C51.5266 16.5739 52.0611 16.2159 52.6803 15.9519C53.2951 15.6924 53.9677 15.5537 54.6537 15.5537C55.3397 15.5537 56.0123 15.6924 56.6404 15.9519C57.2418 16.2114 57.7764 16.5694 58.2574 17.0392C58.7252 17.5225 59.0771 18.0594 59.3399 18.6635C59.5983 19.2989 59.7364 19.9701 59.7364 20.6591C59.7364 21.3482 59.5983 22.0194 59.3399 22.6414C59.0771 23.2589 58.7252 23.7958 58.2574 24.2656C57.7764 24.731 57.2418 25.1024 56.6404 25.3664C56.0123 25.6304 55.3397 25.7646 54.6537 25.7646C53.9677 25.7646 53.2995 25.6304 52.6803 25.3664ZM52.1903 18.1847C51.5311 18.847 51.1658 19.724 51.1658 20.6591C51.1658 21.5943 51.5355 22.4758 52.1903 23.1336C52.8496 23.7958 53.7227 24.1672 54.6537 24.1672C55.5847 24.1672 56.4623 23.7958 57.1215 23.1336C57.7764 22.4713 58.1505 21.5943 58.1505 20.6591C58.1505 19.724 57.7808 18.8425 57.1215 18.1847C56.4623 17.5225 55.5892 17.1511 54.6537 17.1511C53.7182 17.1511 52.8451 17.5225 52.1903 18.1847Z" fill="white"/>
<path d="M69.1846 25.7646H67.3894L64.828 22.3147H63.6654V25.7646H62.0751V15.5582H65.0864C66.4272 15.5582 67.2112 16.1085 67.621 16.5739C68.1556 17.1645 68.4407 17.9923 68.4407 18.9409C68.4407 19.8895 68.1511 20.6994 67.621 21.2945C67.3716 21.5675 66.9885 21.8852 66.445 22.0776L69.1846 25.7646ZM65.0908 20.8829C65.7501 20.8829 66.2401 20.6905 66.5564 20.3325C66.9395 19.9209 67.0063 19.3436 67.0063 18.9454C67.0063 18.5472 66.9395 17.9565 66.5564 17.5404C66.2401 17.1824 65.7501 17.0034 65.0908 17.0034H63.6654V20.8829H65.0908Z" fill="white"/>
<path d="M72.57 15.5582H70.9797V25.7646H72.57V15.5582Z" fill="white"/>
<path d="M80.7307 23.581H77.1136L76.2539 25.7691H74.4988L78.9222 15.0928L83.3322 25.7691H81.5949L80.7307 23.581ZM80.1561 22.1492L78.9222 19.0394L77.6882 22.1492H80.1561Z" fill="white"/>
<path d="M29.1247 30.1989C29.0579 30.4942 28.9287 30.7224 28.7371 30.8835C28.5411 31.0401 28.3095 31.1206 28.0422 31.1206C27.8017 31.1162 27.5968 31.0535 27.4364 30.9372C27.2716 30.8253 27.1513 30.6956 27.0756 30.5479C27.0533 30.4987 27.031 30.4539 27.0132 30.4092C26.9954 30.3644 26.982 30.3063 26.9687 30.2392C26.9464 30.1094 26.9375 29.8633 26.9375 29.5008C26.9375 29.1384 26.9464 28.8789 26.9687 28.7536C26.991 28.6283 27.0266 28.5254 27.0711 28.4493C27.1469 28.3017 27.2627 28.1719 27.432 28.0556C27.5923 27.9392 27.7972 27.8766 28.0378 27.8766C28.3362 27.8766 28.5768 27.9706 28.7639 28.1495C28.951 28.3285 29.0712 28.5567 29.1202 28.8207H28.6258C28.5901 28.691 28.5189 28.5836 28.4209 28.4896C28.314 28.4046 28.1892 28.3598 28.0378 28.3554C27.9264 28.3554 27.8329 28.3822 27.7527 28.4225C27.6725 28.4672 27.6057 28.5209 27.5567 28.588C27.4943 28.6552 27.4542 28.7447 27.4364 28.852C27.4141 28.9684 27.4008 29.1787 27.4008 29.4964C27.4008 29.8141 27.4097 30.0244 27.4364 30.1362C27.4542 30.2481 27.4943 30.3376 27.5567 30.4047C27.6057 30.4718 27.6725 30.5255 27.7527 30.5658C27.8329 30.615 27.9264 30.6374 28.0378 30.6374C28.3006 30.6374 28.4966 30.4897 28.6258 30.1989H29.1202H29.1247Z" fill="white"/>
<path d="M30.0512 29.4919C30.0512 29.1205 30.0601 28.8699 30.0824 28.7447C30.1047 28.6194 30.1403 28.5165 30.1848 28.4404C30.2606 28.2927 30.3808 28.163 30.5457 28.0466C30.706 27.9303 30.9109 27.8721 31.1515 27.8676C31.3965 27.8676 31.6014 27.9303 31.7662 28.0466C31.9266 28.163 32.0424 28.2927 32.1181 28.4404C32.1716 28.5165 32.2072 28.6194 32.225 28.7447C32.2429 28.8699 32.2518 29.1205 32.2518 29.4919C32.2518 29.8633 32.2429 30.1049 32.225 30.2347C32.2072 30.3644 32.1716 30.4674 32.1181 30.5434C32.0469 30.6911 31.931 30.8209 31.7662 30.9327C31.6014 31.0491 31.4009 31.1117 31.1515 31.1162C30.9109 31.1117 30.706 31.0491 30.5457 30.9327C30.3808 30.8209 30.2606 30.6911 30.1848 30.5434C30.1626 30.4942 30.1403 30.4495 30.1225 30.4047C30.1047 30.36 30.0913 30.3018 30.0779 30.2347C30.0557 30.1049 30.0468 29.8588 30.0468 29.4919M30.5189 29.4919C30.5189 29.8051 30.5278 30.0199 30.5546 30.1318C30.5724 30.2436 30.6125 30.3331 30.6748 30.4002C30.7238 30.4674 30.7907 30.5211 30.8708 30.5613C30.951 30.6105 31.0446 30.6329 31.1559 30.6329C31.2673 30.6329 31.3653 30.6105 31.4455 30.5613C31.5212 30.5211 31.5836 30.4674 31.6326 30.4002C31.6949 30.3331 31.735 30.2436 31.7573 30.1318C31.7796 30.0199 31.7885 29.8096 31.7885 29.4919C31.7885 29.1742 31.7751 28.9639 31.7573 28.8476C31.735 28.7402 31.6949 28.6507 31.6326 28.5836C31.5836 28.5165 31.5257 28.4628 31.4455 28.418C31.3653 28.3777 31.2673 28.3554 31.1559 28.3509C31.0446 28.3509 30.951 28.3777 30.8708 28.418C30.7907 28.4628 30.7238 28.5165 30.6748 28.5836C30.6169 28.6507 30.5768 28.7402 30.5546 28.8476C30.5323 28.9639 30.5189 29.1742 30.5189 29.4919Z" fill="white"/>
<path d="M33.5079 27.8945H33.9489L34.8309 29.9752L35.6996 27.8945H36.1406V31.0893H35.6729V29.0982H35.6639L35.018 30.6329H34.6305L33.9846 29.0982H33.9757V31.0893H33.5079V27.8945Z" fill="white"/>
<path d="M37.5215 27.8945H37.9625L38.8445 29.9752L39.7131 27.8945H40.1541V31.0893H39.6864V29.0982H39.6775L39.0316 30.6329H38.6396L37.9981 29.0982H37.9892V31.0893H37.5215V27.8945Z" fill="white"/>
<path d="M41.535 27.8945H43.504V28.3509H41.9983V29.2637H43.2812V29.6933H41.9983V30.6329H43.504V31.0893H41.535V27.8945Z" fill="white"/>
<path d="M44.6443 27.8945H45.847C46.1054 27.8945 46.3147 27.9661 46.4751 28.1048C46.6711 28.2659 46.7736 28.4896 46.7825 28.7849C46.778 29.219 46.5776 29.5143 46.1856 29.6709L46.8983 31.0893H46.3459L45.7089 29.7246H45.112V31.0893H44.6443V27.8945ZM45.112 29.295H45.8203C45.994 29.295 46.1277 29.2413 46.2123 29.1384C46.2969 29.0445 46.3415 28.9236 46.3415 28.7849C46.3415 28.6194 46.288 28.4986 46.1856 28.4225C46.1054 28.3554 45.994 28.3241 45.8426 28.3241H45.1076V29.295H45.112Z" fill="white"/>
<path d="M50.0744 30.1989C50.0076 30.4942 49.8784 30.7224 49.6868 30.8835C49.4908 31.0401 49.2592 31.1206 48.9919 31.1206C48.7514 31.1162 48.5465 31.0535 48.3861 30.9372C48.2213 30.8253 48.101 30.6956 48.0253 30.5479C48.003 30.4987 47.9808 30.4539 47.9629 30.4092C47.9451 30.3644 47.9318 30.3063 47.9184 30.2392C47.8961 30.1094 47.8872 29.8633 47.8872 29.5008C47.8872 29.1384 47.8961 28.8789 47.9184 28.7536C47.9407 28.6283 47.9763 28.5254 48.0208 28.4493C48.0966 28.3017 48.2168 28.1719 48.3817 28.0556C48.5465 27.9392 48.7469 27.8766 48.9875 27.8766C49.2859 27.8766 49.5265 27.9706 49.7136 28.1495C49.9007 28.3285 50.0209 28.5567 50.0699 28.8207H49.5755C49.5354 28.691 49.4686 28.5836 49.3661 28.4896C49.2592 28.4046 49.1345 28.3598 48.983 28.3554C48.8717 28.3554 48.7781 28.3822 48.6979 28.4225C48.6178 28.4672 48.5509 28.5209 48.5019 28.588C48.444 28.6552 48.3995 28.7447 48.3817 28.852C48.3594 28.9684 48.346 29.1787 48.346 29.4964C48.346 29.8141 48.3549 30.0244 48.3817 30.1362C48.3995 30.2481 48.444 30.3376 48.5019 30.4047C48.5509 30.4718 48.6178 30.5255 48.6979 30.5658C48.7781 30.615 48.8717 30.6374 48.983 30.6374C49.2458 30.6374 49.4418 30.4897 49.571 30.1989H50.0655H50.0744Z" fill="white"/>
<path d="M51.5756 27.8945H51.1079V31.0893H51.5756V27.8945Z" fill="white"/>
<path d="M54.4666 30.3779H53.2995L53.0634 31.0938H52.569L53.6871 27.899H54.0791L55.1972 31.0938H54.7027L54.4622 30.3779H54.4666ZM54.333 29.9483L53.8875 28.5478H53.8786L53.4332 29.9483H54.333Z" fill="white"/>
<path d="M56.2351 27.8945H56.7028V30.6329H58.204V31.0893H56.2351V27.8945Z" fill="white"/>
<path d="M61.0461 27.8945H62.24C62.5429 27.8945 62.7701 27.975 62.9215 28.1317C63.0774 28.2883 63.1532 28.4941 63.1532 28.7536C63.1532 28.8834 63.1264 29.0087 63.0641 29.1295C63.0329 29.1876 62.9839 29.2413 62.926 29.2906C62.8636 29.3443 62.7923 29.3935 62.7032 29.4382V29.4472C62.8725 29.4919 62.9972 29.5814 63.0863 29.7201C63.1665 29.8633 63.2066 30.0154 63.2066 30.181C63.2066 30.4584 63.122 30.6777 62.9572 30.8388C62.7968 31.0043 62.5919 31.0893 62.3513 31.0893H61.0506V27.8945H61.0461ZM61.5139 28.3241V29.2413H62.1865C62.3558 29.2413 62.4805 29.1966 62.5607 29.1026C62.6409 29.0176 62.6854 28.9102 62.6854 28.7805C62.6854 28.6507 62.6453 28.5433 62.5607 28.4538C62.4805 28.3688 62.3558 28.3285 62.1865 28.3241H61.5139ZM61.5139 29.6709V30.6329H62.2355C62.4092 30.6329 62.5384 30.5792 62.6186 30.4853C62.6988 30.3913 62.7389 30.2794 62.7389 30.1497C62.7389 30.0199 62.6988 29.9036 62.6186 29.8096C62.5384 29.7156 62.4092 29.6709 62.2355 29.6664H61.5139V29.6709Z" fill="white"/>
<path d="M65.9772 30.3779H64.8101L64.574 31.0938H64.0796L65.1977 27.899H65.5897L66.7078 31.0938H66.2133L65.9728 30.3779H65.9772ZM65.8436 29.9483L65.3981 28.5478H65.3892L64.9438 29.9483H65.8436Z" fill="white"/>
<path d="M67.7501 27.8945H68.1911L69.5854 30.1676H69.5943V27.8945H70.062V31.0893H69.6166L68.2223 28.8163H68.2179V31.0893H67.7501V27.8945Z" fill="white"/>
<path d="M71.4296 27.8945H71.8973V29.5411H71.9062L73.1758 27.8945H73.7326L72.7437 29.1563L73.835 31.0893H73.2782L72.4408 29.5277L71.8973 30.1184V31.0893H71.4296V27.8945Z" fill="white"/>
<path d="M26.5321 10.1663H27.5745V10.4974H26.8796V11.2178H27.4854V11.549H26.8796V12.2694H27.5745V12.6229H26.5321V10.1663Z" fill="#A3852F"/>
<path d="M29.0177 11.3342L28.5588 10.1663H28.9286L29.1958 10.8912L29.4631 10.1663H29.8328L29.3651 11.3342L29.8685 12.6184H29.4987L29.1958 11.7951L28.8929 12.6184H28.5232L29.0177 11.3342Z" fill="#A3852F"/>
<path d="M30.9197 10.1663H31.4454C31.5389 10.1663 31.628 10.1797 31.6993 10.2066C31.7706 10.2334 31.8374 10.2782 31.8953 10.3408C31.9577 10.4079 31.9977 10.4795 32.02 10.569C32.0423 10.654 32.0512 10.7704 32.0512 10.918C32.0512 11.0254 32.0467 11.1194 32.0334 11.1955C32.02 11.2715 31.9933 11.3431 31.9532 11.4102C31.9042 11.4908 31.8418 11.5534 31.7617 11.5982C31.6815 11.6429 31.5746 11.6653 31.4454 11.6653H31.2672V12.6229H30.9153V10.1708L30.9197 10.1663ZM31.2716 11.3297H31.4409C31.5122 11.3297 31.5657 11.3208 31.6057 11.2984C31.6458 11.276 31.6726 11.2492 31.6904 11.2134C31.7082 11.1776 31.7216 11.1373 31.7216 11.0836C31.7216 11.0344 31.726 10.9762 31.726 10.9136C31.726 10.8554 31.726 10.8017 31.7216 10.748C31.7216 10.6988 31.7082 10.654 31.6904 10.6138C31.6726 10.5735 31.6458 10.5467 31.6102 10.5243C31.5746 10.5019 31.5211 10.493 31.4543 10.493H31.2716V11.3252V11.3297Z" fill="#A3852F"/>
<path d="M33.2095 10.1663H34.2518V10.4974H33.5569V11.2178H34.1627V11.549H33.5569V12.2694H34.2518V12.6229H33.2095V10.1663Z" fill="#A3852F"/>
<path d="M35.3699 10.1663H35.9311C36.341 10.1663 36.5503 10.4079 36.5503 10.8867C36.5503 11.0299 36.5281 11.1507 36.4835 11.2536C36.439 11.3566 36.3588 11.4371 36.2474 11.4997L36.6261 12.6184H36.2563L35.9311 11.5713H35.7218V12.6184H35.3699V10.1663ZM35.7218 11.2626H35.9178C35.9801 11.2626 36.0292 11.2536 36.0648 11.2357C36.1004 11.2178 36.1316 11.1955 36.1494 11.1597C36.1672 11.1284 36.1806 11.0881 36.1895 11.0389C36.194 10.9896 36.2029 10.9359 36.2029 10.8733C36.2029 10.8107 36.1984 10.757 36.1895 10.7122C36.1851 10.663 36.1672 10.6227 36.1494 10.5914C36.1271 10.5556 36.096 10.5332 36.0559 10.5153C36.0158 10.4974 35.9668 10.493 35.9 10.493H35.7173V11.2581L35.7218 11.2626Z" fill="#A3852F"/>
<path d="M38.0871 10.1663H37.7352V12.6184H38.0871V10.1663Z" fill="#A3852F"/>
<path d="M39.3167 10.1663H40.359V10.4974H39.6641V11.2178H40.2699V11.549H39.6641V12.2694H40.359V12.6229H39.3167V10.1663Z" fill="#A3852F"/>
<path d="M41.4636 10.1663H41.7977L42.3278 11.6474H42.3323V10.1663H42.6842V12.6229H42.3545L41.82 11.1462H41.8155V12.6229H41.4636V10.1663Z" fill="#A3852F"/>
<path d="M45.0052 12.0725C45.0052 12.1486 44.9919 12.2201 44.9607 12.2917C44.934 12.3589 44.8939 12.4215 44.8404 12.4707C44.7914 12.5199 44.7335 12.5647 44.6622 12.596C44.5954 12.6273 44.5197 12.6408 44.444 12.6408C44.3771 12.6408 44.3103 12.6318 44.2391 12.6139C44.1722 12.596 44.1099 12.5647 44.052 12.5199C43.9985 12.4752 43.954 12.417 43.9183 12.341C43.8827 12.2649 43.8649 12.1754 43.8649 12.0635V10.7122C43.8649 10.6317 43.8782 10.5556 43.905 10.4885C43.9317 10.4169 43.9718 10.3587 44.0208 10.3095C44.0698 10.2603 44.1321 10.22 44.199 10.1887C44.2702 10.1618 44.346 10.144 44.4306 10.144C44.5108 10.144 44.5865 10.1574 44.6533 10.1887C44.7201 10.2155 44.7825 10.2558 44.8315 10.3095C44.8805 10.3587 44.9206 10.4214 44.9518 10.4974C44.9785 10.569 44.9963 10.6496 44.9963 10.7346V10.8733H44.6444V10.757C44.6444 10.6854 44.6266 10.6272 44.5865 10.578C44.5464 10.5288 44.493 10.5019 44.4306 10.5019C44.3415 10.5019 44.2836 10.5288 44.2569 10.5825C44.2257 10.6362 44.2123 10.7033 44.2123 10.7883V12.0412C44.2123 12.1128 44.2257 12.1709 44.2613 12.2201C44.2925 12.2694 44.346 12.2917 44.4261 12.2917C44.4484 12.2917 44.4751 12.2917 44.5019 12.2783C44.5286 12.2694 44.5509 12.2559 44.5731 12.238C44.5954 12.2201 44.6132 12.1933 44.6266 12.162C44.64 12.1307 44.6489 12.0904 44.6489 12.0412V11.9203H45.0008V12.0725H45.0052Z" fill="#A3852F"/>
<path d="M46.1812 10.1663H47.2235V10.4974H46.5331V11.2178H47.1344V11.549H46.5331V12.2694H47.2235V12.6229H46.1812V10.1663Z" fill="#A3852F"/>
<path d="M50.1012 10.4974H49.6958V10.1663H50.8584V10.4974H50.4531V12.6229H50.1012V10.4974Z" fill="#A3852F"/>
<path d="M51.9053 10.1663H52.2527V11.2178H52.6848V10.1663H53.0367V12.6229H52.6848V11.5266H52.2527V12.6229H51.9053V10.1663Z" fill="#A3852F"/>
<path d="M54.2573 10.1663H55.2997V10.4974H54.6092V11.2178H55.2106V11.549H54.6092V12.2694H55.2997V12.6229H54.2573V10.1663Z" fill="#A3852F"/>
<path d="M59.0817 12.068C59.0817 12.1485 59.0683 12.2246 59.0371 12.2917C59.0059 12.3589 58.9658 12.4215 58.9168 12.4707C58.8634 12.5244 58.8055 12.5647 58.7387 12.5915C58.6718 12.6229 58.5961 12.6363 58.5204 12.6363C58.4447 12.6363 58.3689 12.6229 58.3021 12.5915C58.2353 12.5602 58.1729 12.5199 58.1239 12.4707C58.0705 12.4215 58.0304 12.3589 58.0036 12.2917C57.9725 12.2246 57.9591 12.1485 57.9591 12.068V10.1663H58.311V12.0322C58.311 12.1217 58.3333 12.1843 58.3734 12.2246C58.4135 12.2649 58.4669 12.2873 58.5293 12.2873C58.5917 12.2873 58.6407 12.2649 58.6852 12.2246C58.7253 12.1843 58.7476 12.1172 58.7476 12.0322V10.1663H59.0995V12.068H59.0817Z" fill="#A3852F"/>
<path d="M60.3021 10.1663H60.654V12.2694H61.3445V12.6229H60.3021V10.1663Z" fill="#A3852F"/>
<path d="M62.4404 10.4974H62.035V10.1663H63.1932V10.4974H62.7923V12.6229H62.4404V10.4974Z" fill="#A3852F"/>
<path d="M64.6053 10.1663H64.2534V12.6184H64.6053V10.1663Z" fill="#A3852F"/>
<path d="M65.8347 10.1663H66.1688L66.6187 11.4684H66.6276L67.0731 10.1663H67.4116V12.6229H67.0642V11.1284H67.0553L66.7078 12.1843H66.5341L66.1911 11.1284H66.1822V12.6229H65.8347V10.1663Z" fill="#A3852F"/>
<path d="M69.0197 10.1663H69.3092L69.8527 12.6184H69.5007L69.3983 12.0904H68.9217L68.8192 12.6184H68.4673L69.0152 10.1663H69.0197ZM69.1666 10.8733H69.1622L68.9885 11.7637H69.3404L69.1666 10.8733Z" fill="#A3852F"/>
<path d="M70.9619 10.4974H70.5565V10.1663H71.7192V10.4974H71.3138V12.6229H70.9619V10.4974Z" fill="#A3852F"/>
<path d="M72.7616 10.1663H73.8084V10.4974H73.1135V11.2178H73.7193V11.549H73.1135V12.2694H73.8084V12.6229H72.7616V10.1663Z" fill="#A3852F"/>
<path d="M10.7718 6.10789L20.22 31.5323L18.0105 37.206H17.2933C11.0257 21.9926 4.86507 5.33379 4.86507 5.33379C3.4307 1.61991 1.78696 1.57069 0.0407715 1.57069V0.899506H13.8009V1.57069C9.59136 1.57069 10.6159 5.74992 10.7718 6.10789Z" fill="white"/>
<path d="M23.454 0.899506V1.57069C28.0199 1.57069 28.5901 4.43888 27.9843 7.759H29.3741C32.1582 1.54384 33.4901 1.57069 36.1851 1.57069V0.899506H23.454Z" fill="#A3852F"/>
</svg>
