<?xml version="1.0" encoding="utf-8"?>
<!-- Generator: Adobe Illustrator 16.0.0, SVG Export Plug-In . SVG Version: 6.00 Build 0)  -->
<!DOCTYPE svg PUBLIC "-//W3C//DTD SVG 1.1//EN" "http://www.w3.org/Graphics/SVG/1.1/DTD/svg11.dtd">
<svg version="1.1" id="Layer_1" xmlns="http://www.w3.org/2000/svg" xmlns:xlink="http://www.w3.org/1999/xlink" x="0px" y="0px"
	 width="74px" height="75px" viewBox="0 0 74 75" enable-background="new 0 0 74 75" xml:space="preserve">
<g>
	<path fill="#01225D" d="M0,10C0,4.5,4.5,0,10,0h54c5.5,0,10,4.5,10,10v55c0,5.5-4.5,10-10,10H10C4.5,75,0,70.5,0,65V10z"/>
</g>
<g>
	<path fill="#AA892D" d="M62.503,11.477H44.111v1.041c5.554,0,6.94,3.238,6.94,4.858v3.47h1.735
		c1.665-7.495,7.171-8.674,9.715-8.328L62.503,11.477L62.503,11.477z"/>
	<path fill="#FFFFFF" d="M30.581,12.517v-1.041H11.497v1.041c3.053,0,5.205,2.313,5.898,3.47l18.737,47.537l3.47-8.674
		c-3.585-9.483-11.242-29.841-13.186-35.393C24.474,13.905,28.383,12.517,30.581,12.517z"/>
</g>
</svg>
